<svg width="55" height="48" viewBox="0 0 55 48" fill="none" xmlns="http://www.w3.org/2000/svg">
<path d="M41.9377 40.7074C41.4184 34.3748 33.3551 37.2719 34.1974 42.5738C35.1994 48.1268 42.224 45.461 41.9377 40.7074ZM40.1 41.0807C40.0201 43.9877 35.6289 45.1637 35.2793 41.7711C34.8998 38.3125 40.2565 37.0241 40.1 41.0807Z" fill="white"/>
<path d="M46.1687 5.0045C46.192 4.91531 46.2053 4.82281 46.2186 4.73362C46.2219 4.69728 46.2319 4.66095 46.2353 4.62461C46.2419 4.56515 46.2419 4.50569 46.2453 4.44623C46.2453 4.38677 46.2453 4.32731 46.2386 4.26784C46.2386 4.25463 46.2386 4.24142 46.2353 4.2282C46.2319 4.21829 46.2319 4.20838 46.2319 4.19847C46.2219 4.09277 46.2053 3.99036 46.1787 3.88796C46.1687 3.84832 46.1554 3.81198 46.1454 3.77564C46.1221 3.69636 46.0921 3.62038 46.0621 3.54771C46.0455 3.50807 46.0255 3.47173 46.0089 3.43539C45.9689 3.36272 45.9256 3.29665 45.879 3.23058C45.8591 3.20085 45.8391 3.17443 45.8191 3.1447C45.7825 3.10505 45.7425 3.06872 45.7059 3.02908C45.6593 2.98283 45.6194 2.92998 45.5661 2.88703C45.4829 2.82096 45.393 2.76811 45.3031 2.71856C45.2731 2.70535 45.2432 2.69213 45.2132 2.67892C45.1533 2.65249 45.0934 2.63267 45.0334 2.61285C44.9535 2.58973 44.8736 2.57321 44.7904 2.5633C44.7538 2.55669 44.7138 2.55009 44.6772 2.54678C44.6006 2.54018 44.5207 2.54348 44.4442 2.54678C44.4475 2.55339 44.4541 2.56 44.4575 2.56991C44.4775 2.60624 44.4941 2.64258 44.5107 2.68222C44.544 2.7549 44.5707 2.83087 44.5973 2.91016C44.6073 2.94649 44.6206 2.98283 44.6306 3.02247C44.6539 3.12157 44.6739 3.22728 44.6839 3.33299C44.6839 3.3495 44.6905 3.36602 44.6905 3.38254C44.7005 3.50476 44.6972 3.63029 44.6872 3.75582C44.6839 3.79216 44.6772 3.82849 44.6705 3.86483C44.6572 3.95402 44.6439 4.04652 44.6206 4.13571C44.6106 4.17865 44.5973 4.2249 44.584 4.26784C44.5574 4.35043 44.5274 4.43632 44.4941 4.5156C44.4775 4.55854 44.4575 4.60149 44.4375 4.64443C44.3809 4.76005 44.3177 4.87567 44.2411 4.98468C44.1545 5.11021 44.058 5.21922 43.9548 5.32162C43.9381 5.33814 43.9248 5.35466 43.9082 5.36787C43.8116 5.46037 43.7084 5.53965 43.6019 5.61232C43.5653 5.63875 43.5253 5.65857 43.4887 5.67839C43.4055 5.72794 43.3189 5.77088 43.2323 5.80722C43.199 5.82043 43.1691 5.83365 43.1358 5.84356C43.0159 5.8865 42.8961 5.91953 42.7762 5.93605C42.733 5.94266 42.6863 5.94596 42.6431 5.94927C42.6863 6.02855 42.733 6.10452 42.7896 6.1739C42.7995 6.18711 42.8129 6.20363 42.8228 6.21684C42.8994 6.30933 42.9826 6.39522 43.0759 6.4712C43.1624 6.54057 43.2556 6.59673 43.3522 6.64628C43.3588 6.64958 43.3622 6.65289 43.3688 6.65289C43.3855 6.65949 43.4055 6.6661 43.4221 6.67271C43.4854 6.70244 43.5486 6.72556 43.6152 6.74538C43.6252 6.74868 43.6352 6.75199 43.6452 6.75529C43.6518 6.75859 43.6618 6.7619 43.6685 6.7619C43.6851 6.7652 43.7017 6.7652 43.7151 6.7685C43.785 6.78502 43.8549 6.79493 43.9281 6.80154C43.9581 6.80484 43.9914 6.80815 44.0214 6.81145C44.1246 6.81475 44.2278 6.81145 44.331 6.79823C44.4508 6.78172 44.574 6.74538 44.6905 6.70574C44.7238 6.69583 44.7538 6.68262 44.7871 6.6661C44.8004 6.65949 44.8137 6.65619 44.8303 6.64958C44.8603 6.63637 44.8903 6.62316 44.9202 6.60994C44.9635 6.58682 45.0035 6.56039 45.0434 6.53727C45.0834 6.51414 45.12 6.49432 45.1566 6.4712C45.1599 6.4679 45.1666 6.46459 45.1699 6.46459C45.1966 6.44477 45.2265 6.42495 45.2532 6.40513C45.2998 6.3721 45.343 6.33576 45.3863 6.29612C45.4096 6.2763 45.4329 6.25648 45.4529 6.23666C45.4562 6.23336 45.4596 6.23005 45.4629 6.22675C45.4795 6.21354 45.4929 6.19702 45.5095 6.1805C45.5328 6.15407 45.5594 6.13095 45.5827 6.10452C45.5994 6.0847 45.6194 6.06819 45.636 6.04837C45.6926 5.9823 45.7459 5.91623 45.7958 5.84356C45.8058 5.83034 45.8158 5.81383 45.8224 5.80061C45.8657 5.73455 45.9057 5.66848 45.9423 5.60241C45.9556 5.57929 45.9656 5.55947 45.9756 5.53634C45.9789 5.52643 45.9856 5.51652 45.9889 5.50661C46.0089 5.46367 46.0289 5.42072 46.0455 5.37778C46.0621 5.33814 46.0855 5.2952 46.0988 5.25556C46.1054 5.23904 46.1088 5.21922 46.1154 5.2027C46.1221 5.17958 46.1287 5.15315 46.1354 5.13003C46.1454 5.09369 46.1554 5.05075 46.1687 5.0045Z" fill="white"/>
<path d="M32.2898 28.5112C31.7372 22.0927 23.5673 25.1715 24.5628 30.523C25.738 35.9339 32.5761 33.169 32.2898 28.5112ZM30.4521 28.8845C30.4454 31.6725 26.1042 32.9542 25.6447 29.7335C25.0721 26.2187 30.5919 24.7222 30.4521 28.8845Z" fill="white"/>
<path d="M51.1227 23.3582C51.1892 21.2936 50.3869 19.163 48.7589 17.8878L32.5791 5.21608C32.4992 5.15331 32.4193 5.09385 32.336 5.03439C31.3007 4.31425 30.0555 3.91124 28.8004 3.9641C26.49 4.05329 24.3693 5.47044 23.0709 7.37649L9.33465 27.352C9.02836 27.8013 8.7587 28.277 8.53564 28.7725C7.15736 31.7092 7.60014 35.6435 10.2535 37.6751L14.0721 40.6647C14.6014 41.0677 15.194 41.3914 15.8266 41.5764C18.1071 42.2932 20.604 41.3551 22.2619 39.6902C22.7147 39.2739 24.8021 36.5982 25.2415 36.0697C25.4146 35.8648 25.6477 35.7096 25.9107 35.6732C28.3177 36.1324 30.7513 35.1348 32.2894 33.1825C34.7264 30.368 34.9628 25.2709 31.6535 23.0576C29.0301 21.2573 25.4413 22.5423 23.6468 24.967C22.2586 26.7409 21.6094 29.1557 22.0954 31.3888C22.212 32.2476 23.0343 33.1263 22.3584 33.9291C22.2919 33.9951 20.0846 36.7898 20.0913 36.7303C19.1757 37.7279 17.5511 38.1111 16.4458 37.2192L12.5939 34.2032C11.8648 33.6351 11.432 32.7101 11.4553 31.7753C11.4487 30.9857 11.7183 30.2095 12.1545 29.562L25.8841 9.58975C26.7064 8.35099 28.4176 7.59782 29.7726 8.37741C29.8824 8.44018 29.9856 8.50624 30.0855 8.58553L46.3852 21.3432C46.4285 21.3795 46.4685 21.4159 46.5117 21.4555C47.7535 22.572 47.667 24.6234 46.7448 25.925L41.0352 34.2297C40.952 34.3519 40.8454 34.4543 40.7256 34.5303C40.3794 34.778 39.9932 34.6261 39.627 34.5303C39.2374 34.4444 38.8413 34.4047 38.4418 34.4081C35.865 34.4378 33.5678 36.2348 32.4359 38.534C29.1833 45.2002 35.7851 51.3115 41.438 45.9534C43.3124 44.0737 44.2679 41.1602 43.5654 38.5406C43.4156 38.012 43.1226 37.4373 43.5121 36.9384L49.5646 28.1349C50.5168 26.731 51.086 25.0595 51.1227 23.3582ZM50.0074 23.7282C49.9708 25.043 49.538 26.3511 48.7922 27.4379L42.7398 36.2414C41.9108 37.3249 42.2337 38.6232 42.5999 39.8124C42.9328 41.7548 42.1505 43.8227 40.7356 45.1374C39.6403 46.1879 38.0822 46.7594 36.5941 46.4423C36.401 46.3993 36.2145 46.3432 36.0348 46.2705C32.9453 45.0747 32.7455 40.6812 34.7064 38.3358C35.4022 37.424 36.3544 36.7336 37.4497 36.4033C38.6848 36.0102 39.9199 36.7667 41.1085 36.3901C41.6777 36.2811 42.4335 35.4949 42.5234 35.2967C42.6898 35.0522 45.9458 30.3218 47.4605 28.1151C48.0199 27.2727 48.1264 27.1736 48.3228 26.8565C49.1218 25.6277 49.4647 24.0784 49.1618 22.6282C49.0319 22.0237 48.7956 21.4357 48.436 20.9369C47.9266 20.2894 47.6237 20.1143 47.6137 20.0978C46.6615 19.3545 37.0502 11.8294 33.0851 8.72427C31.7801 7.72995 31.6935 7.59781 31.1642 7.23444C30.8778 7.04945 30.5716 6.89419 30.2486 6.79509C28.5408 6.25664 26.5566 7.08249 25.4446 8.46991C25.0151 9.03809 25.125 8.88613 25.0551 8.99184C24.2528 10.1579 16.1528 21.9378 12.8137 26.7938C11.7417 28.386 11.6018 28.5115 11.209 29.1458C11.1091 29.3076 11.0192 29.4761 10.9393 29.6479C9.91726 31.6332 10.1703 34.3783 12.0013 35.7757C12.0013 35.7757 12.0113 35.7823 12.028 35.7988C12.3343 36.0399 15.0875 38.197 15.7234 38.6925C15.8565 38.8082 15.7833 38.7454 16.0896 38.9601C17.1449 39.6769 18.5365 39.7232 19.6851 39.2244C20.4442 38.9469 21.4063 38.1045 21.7259 37.652C22.0755 37.206 23.8932 34.9828 23.9731 34.8243C24.3926 34.1636 24.569 33.3311 24.4026 32.5582C24.2528 31.9404 23.9065 31.3789 23.8366 30.7347C23.5603 29.0136 24.1296 27.2199 25.2415 25.9217C28.3876 22.2351 33.5978 24.3427 32.9752 29.3208C32.6357 31.7653 30.8778 34.1768 28.5807 34.3783C27.4688 34.4576 26.5699 34.2495 26.0139 34.4114C25.4879 34.4774 24.6456 35.0588 24.5424 35.2901C24.0364 35.9078 22.1354 38.3259 21.889 38.5571C20.3876 40.2286 17.7741 41.0115 15.79 39.7661C15.2107 39.3862 11.715 36.6378 11.1923 36.1754C8.29594 33.4005 10.0837 29.2217 10.9593 28.2241C12.1511 26.4898 20.5107 14.3367 23.4937 9.99607C24.4425 8.66811 24.1962 8.91586 24.8354 8.0735C25.9373 6.67948 27.6519 5.70828 29.433 5.80738C30.202 5.86354 30.9544 6.11129 31.6036 6.53082C32.2295 6.95366 31.9265 6.76536 32.1529 6.92723C33.5412 8.01404 43.1492 15.5391 46.7814 18.38C47.9599 19.3512 47.7901 19.1035 48.4959 19.7543C49.548 20.7684 50.0507 22.2681 50.0074 23.7282Z" fill="white"/>
<path d="M38.4059 38.7452C38.8054 38.8046 39.1483 38.9797 39.408 39.2605C39.7842 39.6701 39.9673 40.2944 39.9373 41.074C39.8941 42.6299 38.5358 43.6738 37.2906 43.6738C36.8978 43.6738 36.5482 43.5714 36.2619 43.3732C36.9477 43.2345 37.6269 42.6531 38.093 41.7909C38.6623 40.747 38.7721 39.5875 38.4059 38.7452ZM38.1363 38.5635C39.1517 40.2152 37.6402 43.2477 35.949 43.2477C35.9257 43.2477 35.899 43.2477 35.8757 43.2444C36.2519 43.6507 36.7613 43.8357 37.2973 43.8357C38.599 43.8357 40.0539 42.7423 40.1005 41.0807C40.1637 39.3365 39.2116 38.5833 38.1363 38.5635Z" fill="white"/>
<path d="M29.2089 26.6745C29.9413 26.9851 30.3341 27.7713 30.2942 28.8845C30.2909 30.4074 28.8926 31.4677 27.6375 31.4677C27.3312 31.4677 26.9284 31.405 26.5688 31.144C26.6121 31.1407 26.6521 31.1341 26.6953 31.1308C26.8485 31.1077 27.0116 31.0647 27.2014 30.9987C27.2447 30.9821 27.2846 30.9656 27.3279 30.9491L27.3379 30.9458C27.4477 30.8996 27.5576 30.8434 27.6908 30.7707L27.734 30.7476C27.774 30.7245 27.8173 30.7014 27.8606 30.6716C28.0237 30.5626 28.1635 30.4536 28.29 30.3347C28.3033 30.3215 28.3133 30.3116 28.3266 30.2984C28.3333 30.2917 28.34 30.2851 28.3466 30.2785C28.5064 30.1233 28.6363 29.968 28.7494 29.8094C28.8493 29.6707 28.9425 29.5088 29.0358 29.3239C29.0557 29.2809 29.0757 29.2413 29.0924 29.1983L29.1123 29.1488C29.1689 29.0199 29.2122 28.9043 29.2455 28.7986C29.2655 28.7392 29.2821 28.6764 29.2988 28.6169C29.3287 28.5013 29.352 28.3791 29.372 28.2503L29.3787 28.2007C29.3853 28.1611 29.392 28.1247 29.3953 28.0851C29.412 27.9034 29.4186 27.7415 29.4086 27.5863C29.4086 27.5797 29.4086 27.5698 29.4086 27.5632C29.3986 27.4046 29.3753 27.2394 29.3321 27.0577C29.3254 27.0214 29.3121 26.9884 29.3021 26.9553C29.2988 26.9421 29.2921 26.9256 29.2888 26.9091C29.2588 26.8232 29.2355 26.7472 29.2089 26.6745ZM28.9059 26.4136C28.9192 26.44 28.9392 26.4631 28.9525 26.4896C28.9758 26.5391 28.9991 26.5854 29.0224 26.6382C29.0657 26.7406 29.1023 26.843 29.1323 26.952C29.1456 26.9983 29.1623 27.0445 29.1723 27.0908C29.2089 27.246 29.2355 27.4046 29.2455 27.5698C29.2455 27.5764 29.2455 27.5797 29.2455 27.5863C29.2555 27.7448 29.2488 27.9067 29.2322 28.0686C29.2255 28.1214 29.2155 28.1743 29.2089 28.2271C29.1922 28.3427 29.1689 28.4617 29.139 28.5773C29.1223 28.6368 29.109 28.6929 29.089 28.7524C29.0524 28.8647 29.0091 28.977 28.9592 29.0893C28.9359 29.1455 28.9126 29.2016 28.8859 29.2578C28.806 29.4163 28.7162 29.5716 28.6129 29.7236C28.4964 29.8887 28.3666 30.0341 28.2301 30.1695C28.2134 30.186 28.1968 30.2059 28.1768 30.2224C28.047 30.3446 27.9105 30.4503 27.7673 30.5428C27.7141 30.5758 27.6608 30.6056 27.6075 30.6353C27.4977 30.6981 27.3878 30.7575 27.2746 30.8038C27.2313 30.8203 27.1881 30.8401 27.1448 30.8533C26.9883 30.9095 26.8285 30.9524 26.6687 30.9755C26.5655 30.9888 26.4623 30.9954 26.3591 30.9954C26.3258 30.9954 26.2925 30.9954 26.2592 30.9921C26.2259 30.9921 26.1893 30.9855 26.156 30.9822C26.5355 31.4281 27.0682 31.6296 27.6308 31.6296C28.9559 31.6296 30.4407 30.5164 30.444 28.8845C30.5006 27.3649 29.7948 26.6019 28.9059 26.4136Z" fill="white"/>
<path d="M14.7018 10.7855C14.6518 8.91581 12.2881 8.69778 11.4292 10.1348L5.63638 18.7764C5.41999 19.1266 5.00384 19.0572 4.6576 19.1067C4.07832 19.186 3.53233 19.4206 3.03961 19.741C0.948882 21.0954 0.0599877 24.4384 1.80781 26.4171C2.91976 27.6096 4.3147 27.6162 5.58312 27.1141C6.31887 26.8234 7.04796 26.3411 7.58729 25.5781C8.05338 24.9207 8.31305 24.1279 8.3863 23.3318C8.41626 23.0675 8.42625 22.7999 8.39961 22.5323C8.43623 22.0335 8.09333 21.4918 8.4096 21.0425L14.249 12.3348C14.249 12.3315 14.2523 12.3315 14.2523 12.3282L14.2557 12.3249C14.5653 11.8822 14.7384 11.324 14.7018 10.7855ZM13.5399 10.9837L7.50406 20.253C7.48076 20.286 7.46411 20.3257 7.44414 20.362C7.20776 20.8641 7.12453 21.5512 7.16781 22.1458C7.17114 22.202 7.19777 22.3672 7.20443 22.3936C7.86694 25.218 4.91728 26.6913 3.48573 25.6177C2.14739 24.5177 2.71335 21.9873 4.21482 21.2242C5.10038 20.9038 5.99594 20.9104 6.77164 20.3158C6.82823 20.2728 6.99136 20.1242 7.02466 20.0977C7.06128 20.0614 7.09457 20.0284 7.13119 19.9887C7.13452 19.9854 13.2835 10.8186 13.2835 10.8186C13.4001 10.6435 13.6564 10.8152 13.5399 10.9837Z" fill="white"/>
<path d="M54.4374 12.9755C54.7903 12.546 54.9734 12.0307 54.9967 11.5352C55 11.479 55 11.4262 55 11.3733C55 11.3634 55 11.3568 55 11.3502C54.9967 11.2841 54.9933 11.2181 54.9833 11.1553C54.9234 10.6895 54.7104 10.2667 54.3541 9.98592C52.4632 8.52582 49.6533 6.31586 48.4248 5.29842C48.2118 5.12334 48.1152 4.83925 48.1252 4.56177C48.255 0.789306 44.4431 -0.935059 41.8097 1.94549C39.0099 4.93835 41.2105 10.379 45.4952 8.4994C45.6316 8.48288 45.7681 8.51261 45.878 8.5985L51.9105 13.3785C52.0037 13.4512 52.1003 13.5106 52.1968 13.5602C52.1968 13.5602 52.2001 13.5602 52.2001 13.5635C52.5098 13.722 52.8327 13.765 53.1456 13.7154C53.1589 13.7154 53.1723 13.7154 53.1856 13.7121C53.2222 13.7055 53.2588 13.6923 53.2954 13.6857C53.2988 13.6857 53.3054 13.6824 53.3088 13.6824C53.7183 13.5899 54.1211 13.3587 54.4374 12.9755ZM47.2896 7.27384C47.233 7.2309 47.1597 7.18795 47.0965 7.15822C45.8214 6.59335 44.3666 8.09639 43.188 7.02609C40.0086 3.84163 46.6937 -0.449462 46.95 4.76658C46.9533 4.80952 46.95 4.85577 46.9467 4.89871C46.9001 5.51314 46.9933 6.29604 47.3728 6.77173C47.4261 6.83449 47.4893 6.90056 47.5493 6.95011L53.7549 11.8953C53.918 12.0208 53.7349 12.2752 53.5784 12.1463L47.2896 7.27384Z" fill="white"/>
<path d="M6.18089 23.6853C6.21418 23.5664 6.23748 23.4474 6.2508 23.3285C6.26412 23.2162 6.26412 23.1006 6.26079 22.9916C6.26079 22.9784 6.25746 22.9652 6.25746 22.9519C6.2508 22.8495 6.23415 22.7471 6.21085 22.6513C6.20752 22.6315 6.20086 22.615 6.1942 22.5952C6.1709 22.5126 6.14427 22.4366 6.11097 22.3606C6.10099 22.3375 6.091 22.3144 6.08101 22.2913C6.03773 22.2021 5.98779 22.1195 5.92787 22.0402C5.92454 22.0369 5.92121 22.0303 5.92121 22.027C5.85463 21.9411 5.77805 21.8585 5.6915 21.7891C5.61825 21.7297 5.54168 21.6801 5.46178 21.6372C5.43848 21.624 5.41184 21.6141 5.38521 21.6042C5.33194 21.581 5.27868 21.5612 5.22541 21.5447C5.15883 21.5249 5.08891 21.5117 5.019 21.5018C4.98571 21.4984 4.95242 21.4885 4.91912 21.4852C4.89249 21.4819 4.86586 21.4852 4.83589 21.4819C4.85254 21.5117 4.86586 21.5414 4.87917 21.5744C4.90914 21.6438 4.93577 21.7165 4.95574 21.7925C4.96573 21.8255 4.97572 21.8585 4.98238 21.8916C5.00568 22.0006 5.02566 22.1129 5.03232 22.2252C5.03232 22.2285 5.03232 22.2318 5.03232 22.2351C5.03897 22.3441 5.03565 22.4597 5.02233 22.5721C5.019 22.6084 5.01234 22.6447 5.00568 22.6811C4.99237 22.7636 4.97905 22.8429 4.95574 22.9255C4.94576 22.9652 4.93244 23.0081 4.92245 23.0477C4.89582 23.127 4.86586 23.2063 4.83256 23.2823C4.81592 23.3219 4.79927 23.3616 4.78263 23.3979C4.72603 23.5102 4.6661 23.6192 4.58953 23.7216C4.5063 23.8372 4.41642 23.9397 4.31987 24.0354C4.30655 24.0487 4.29656 24.0619 4.28325 24.0718C4.19336 24.1577 4.09681 24.2303 3.99694 24.2964C3.96032 24.3195 3.9237 24.3394 3.88707 24.3625C3.8105 24.4054 3.73393 24.4484 3.65403 24.4781C3.62407 24.4913 3.59411 24.5045 3.56414 24.5144C3.45428 24.5541 3.34442 24.5838 3.23122 24.6003C3.22124 24.6003 3.21458 24.6003 3.20459 24.6036C3.21458 24.6168 3.22457 24.6334 3.23455 24.6466C3.24454 24.6598 3.25453 24.6697 3.26119 24.6829C3.32444 24.7622 3.39435 24.8382 3.47758 24.9042C3.55415 24.967 3.63406 25.0166 3.71729 25.0595C3.72394 25.0628 3.7306 25.0661 3.73726 25.0694C3.82049 25.109 3.90372 25.1421 3.99028 25.1652C3.99361 25.1652 3.99694 25.1685 4.00027 25.1685C4.09015 25.1916 4.18337 25.2048 4.27659 25.2115H4.27992C4.37647 25.2148 4.47301 25.2115 4.56956 25.1982C4.68608 25.1817 4.8026 25.152 4.91912 25.109H4.92245C5.02899 25.0694 5.13552 25.0132 5.23873 24.9505C5.24871 24.9439 5.2587 24.9406 5.26869 24.934C5.37522 24.8646 5.4751 24.7886 5.56832 24.6961C5.56832 24.6961 5.56832 24.6961 5.57164 24.6928C5.66819 24.6003 5.76141 24.4913 5.84464 24.3757C5.92121 24.27 5.98779 24.1577 6.04106 24.0421C6.04106 24.0421 6.04106 24.0387 6.04439 24.0387C6.09766 23.9264 6.14427 23.8075 6.17756 23.6919C6.18089 23.6919 6.18089 23.6886 6.18089 23.6853Z" fill="white"/>
<path d="M33.1981 46.3636C31.3338 45.2272 30.3616 42.9809 30.6646 40.434C30.6812 40.2821 30.7079 40.1202 30.7412 39.9385C30.7478 39.9055 30.7545 39.8691 30.7611 39.8361L30.7711 39.7832C30.7978 39.661 30.8244 39.5487 30.851 39.443C30.8644 39.3868 30.881 39.3307 30.8943 39.2745C30.9243 39.1655 30.9576 39.0565 30.9975 38.9343L31.0142 38.8814C31.0242 38.8517 31.0341 38.822 31.0441 38.7922C31.0475 38.7823 31.0508 38.7724 31.0541 38.7625C31.0574 38.7559 31.0574 38.746 31.0608 38.7394C31.0741 38.703 31.0907 38.6667 31.1041 38.6271C31.114 38.6006 31.1274 38.5709 31.1373 38.5445L31.1573 38.4949C31.1873 38.4189 31.2172 38.343 31.2472 38.2703C31.2738 38.2108 31.3005 38.1547 31.3271 38.0952L31.3537 38.0358L31.3737 37.9961C31.4103 37.9201 31.4436 37.8442 31.4836 37.7715C31.4902 37.7616 31.4936 37.7484 31.5002 37.7385C31.5036 37.7318 31.5069 37.7219 31.5102 37.7153C31.5402 37.6592 31.5735 37.603 31.6068 37.5469L31.6467 37.4808C31.6567 37.461 31.67 37.4411 31.68 37.4213C31.6967 37.3916 31.7133 37.3619 31.7299 37.3321C31.8165 37.1835 31.9097 37.0447 31.9963 36.9126L32.0029 36.906L32.0063 36.8994C32.1428 36.7012 32.2992 36.4964 32.4923 36.2684C32.5056 36.2552 32.5156 36.2387 32.5256 36.2255C32.5323 36.2156 32.5389 36.2057 32.5456 36.1991C32.5489 36.1958 32.5556 36.1892 32.5589 36.1859C32.5689 36.176 32.5789 36.166 32.5889 36.1561C32.7587 35.9645 32.9351 35.7795 33.1182 35.6078C33.1282 35.5979 33.1382 35.5879 33.1482 35.578C33.1515 35.5747 33.1548 35.5681 33.1582 35.5648C33.1915 35.5351 33.2248 35.5054 33.258 35.4789C33.278 35.4624 33.298 35.4459 33.318 35.4261L33.3612 35.3864C33.3945 35.3567 33.4278 35.327 33.4645 35.2973C33.551 35.2246 33.6442 35.1552 33.7308 35.0891C33.7474 35.0759 33.7674 35.0627 33.7841 35.0495C33.8074 35.0297 33.8307 35.0132 33.8573 34.9933C33.864 34.99 33.8673 34.9834 33.8806 34.9768C33.9039 34.9603 33.9305 34.9438 33.9572 34.9273C33.9805 34.9141 34.0005 34.9008 34.0238 34.8843L34.0371 34.8777C34.1303 34.815 34.2202 34.7555 34.3134 34.6993C34.3533 34.6762 34.3966 34.6531 34.4399 34.63L34.5098 34.5903C34.603 34.5375 34.6896 34.4912 34.7828 34.445C34.7928 34.4384 34.8061 34.4318 34.8161 34.4285C34.8228 34.4252 34.8294 34.4219 34.8361 34.4186C34.8893 34.3921 34.9459 34.369 34.9992 34.3459L35.0658 34.3161C35.0858 34.3062 35.1057 34.2996 35.1257 34.2897C35.1524 34.2765 35.1823 34.2633 35.2089 34.2534C35.3688 34.1906 35.5152 34.1378 35.6584 34.0915C35.968 33.9957 36.2809 33.923 36.5906 33.8801C36.7737 33.8537 36.9568 33.8372 37.1565 33.8306C37.1698 33.8306 37.1832 33.8306 37.1965 33.8306C37.2198 33.8306 37.2398 33.8306 37.2631 33.8306C37.2864 33.8306 37.3097 33.8306 37.3396 33.8306H37.4095C37.4994 33.8306 37.6026 33.8306 37.7058 33.8372C37.7525 33.8405 37.8024 33.8471 37.849 33.8504L37.9189 33.857C38.0288 33.8702 38.1353 33.8801 38.2418 33.8999C38.3018 33.9098 38.3617 33.923 38.4183 33.9363L38.4582 33.9462C38.4849 33.9528 38.5148 33.9561 38.5415 33.9627C38.5781 33.9693 38.6147 33.9759 38.6513 33.9858C38.7179 34.0023 38.7812 34.0221 38.8444 34.042C38.8977 34.0585 38.951 34.0651 39.0009 34.0717L39.0142 34.075C39.0309 34.0783 39.0475 34.0816 39.0642 34.0816C39.0875 34.0816 39.1108 34.0849 39.1341 34.0849C39.1773 34.0849 39.224 34.0816 39.2639 34.075C39.3471 34.0618 39.437 34.0354 39.5336 33.9924C39.5735 33.9759 39.6101 33.9561 39.6434 33.9363L39.6567 33.9297C39.6734 33.9197 39.6867 33.9131 39.7 33.9032C39.7566 33.8636 39.8132 33.8206 39.8598 33.7744C39.8665 33.7678 39.8731 33.7612 39.8765 33.7546L39.8831 33.748C39.9397 33.6885 39.9897 33.6323 40.0296 33.5762L45.7392 25.2715C45.7425 25.2682 45.7458 25.2616 45.7458 25.2616C45.8191 25.1526 45.8923 25.0303 45.9689 24.8916C45.9822 24.8652 45.9955 24.8421 46.0088 24.8156L46.0222 24.7925C46.1087 24.6207 46.1786 24.4655 46.2319 24.3201C46.2352 24.3135 46.2352 24.3102 46.2352 24.3036C46.2852 24.1616 46.3284 24.0096 46.3684 23.8345L46.3751 23.8081C46.3817 23.785 46.385 23.7618 46.3917 23.7387C46.425 23.5802 46.445 23.4216 46.4583 23.2696C46.4583 23.2498 46.4616 23.23 46.4616 23.2135V23.1838C46.4716 23.0318 46.4716 22.8831 46.4616 22.7444V22.7279C46.4616 22.7147 46.4616 22.7048 46.4616 22.6916C46.4516 22.5462 46.4317 22.3975 46.3984 22.2357C46.3917 22.2027 46.385 22.1696 46.3784 22.1399C46.3418 21.9813 46.2985 21.8393 46.2485 21.7071C46.2452 21.6939 46.2386 21.684 46.2319 21.6708L46.2252 21.6543C46.1753 21.5288 46.1121 21.4032 46.0421 21.281L46.0288 21.2579C46.0188 21.2414 46.0122 21.2282 46.0022 21.2116C45.9989 21.205 45.9922 21.1951 45.9889 21.1885L46.5715 21.5122C46.5515 21.4924 46.5349 21.466 46.5116 21.4462C46.4683 21.4098 46.4283 21.3702 46.385 21.3339L45.2764 20.4717C46.4849 21.7501 46.6647 23.7387 45.616 25.1889C45.4229 25.3276 40.792 32.5488 39.5402 33.7744C39.3838 33.9263 39.1108 33.89 39.0442 33.8735C30.8976 31.9047 26.9725 44.19 34.3134 47.2687C33.9072 47.021 33.531 46.717 33.1981 46.3636Z" fill="white"/>
<path d="M17.5334 37.6783C17.5101 37.6651 17.4835 37.6518 17.4602 37.6386L16.9775 37.3711H17.0074C17.1506 37.3711 17.2671 37.3612 17.3803 37.3446C17.5002 37.3281 17.6267 37.2984 17.7765 37.2554C17.8064 37.2455 17.8397 37.2356 17.8697 37.2257C18.0129 37.1795 18.136 37.1299 18.2526 37.0738C18.2592 37.0705 18.2659 37.0672 18.2792 37.0605C18.4223 36.9912 18.5688 36.9053 18.712 36.8062L18.7286 36.7963C18.7386 36.7897 18.7486 36.7831 18.7586 36.7765C18.8651 36.7005 18.9717 36.6146 19.0782 36.5188C19.0982 36.5023 19.1181 36.4824 19.1348 36.4626L19.1581 36.4395C19.228 36.3734 19.2979 36.3008 19.3612 36.2314L19.3911 36.1984C19.4311 36.1554 19.4677 36.1125 19.5043 36.0662L21.5485 33.5193C21.6217 33.4301 21.6816 33.331 21.7349 33.2121L21.7382 33.2055C21.7449 33.1923 21.7482 33.1824 21.7549 33.1692C21.7981 33.0602 21.8281 32.9511 21.8448 32.8421C21.8481 32.8289 21.8481 32.8124 21.8481 32.7992V32.7893C21.8581 32.6968 21.8581 32.6043 21.8481 32.5118C21.8448 32.4821 21.8414 32.4523 21.8381 32.4259C21.8181 32.3037 21.7882 32.2013 21.7449 32.1121C21.2122 30.9658 21.0391 29.6246 21.2488 28.2306C21.2788 28.0324 21.3221 27.821 21.382 27.5732C21.3953 27.5237 21.4086 27.4741 21.4219 27.4246L21.4319 27.3882C21.4752 27.2231 21.5285 27.0579 21.5817 26.896C21.5884 26.8762 21.5951 26.8564 21.6017 26.8333C21.605 26.8168 21.6117 26.8002 21.6184 26.7837C21.6217 26.7738 21.625 26.7672 21.6284 26.7573C21.635 26.7441 21.6383 26.7342 21.6417 26.721C21.6716 26.6351 21.7049 26.5558 21.7415 26.4666L21.7515 26.4402L21.7782 26.3774C21.8015 26.3213 21.8248 26.2651 21.8481 26.2089C21.8847 26.1297 21.9213 26.0537 21.9613 25.9744L21.9812 25.9315C21.9946 25.905 22.0079 25.8786 22.0179 25.8522C22.0345 25.8191 22.0512 25.7828 22.0678 25.7498C22.0711 25.7432 22.0745 25.7366 22.0778 25.7333C22.0845 25.7233 22.0878 25.7167 22.0911 25.7068C22.1111 25.6705 22.1311 25.6375 22.151 25.6011L22.1843 25.545C22.2343 25.4558 22.2909 25.36 22.3475 25.2642C22.3774 25.2146 22.4074 25.1684 22.4407 25.1221L22.4607 25.0957C22.474 25.0759 22.4873 25.0528 22.5006 25.0296C22.5206 24.9999 22.5406 24.9669 22.5605 24.9371C22.5639 24.9305 22.5705 24.9239 22.5738 24.9173C22.5838 24.9041 22.5938 24.8942 22.6005 24.881C22.7503 24.663 22.9101 24.4581 23.0699 24.2699C23.0766 24.2599 23.0865 24.25 23.0932 24.2401C23.0965 24.2368 23.0965 24.2335 23.0999 24.2302C23.1065 24.2236 23.1132 24.2137 23.1232 24.2071C23.1365 24.1939 23.1498 24.1807 23.1598 24.1674C23.3429 23.9626 23.516 23.7843 23.6891 23.6224C23.6958 23.6158 23.7024 23.6092 23.7158 23.596L23.7257 23.5861C23.7424 23.5695 23.7624 23.5563 23.779 23.5398C23.7957 23.5266 23.809 23.5134 23.8256 23.5002C23.9122 23.4242 24.0054 23.3416 24.1019 23.2656C24.1319 23.2425 24.1652 23.2194 24.1952 23.193L24.2484 23.1533C24.2684 23.1368 24.2917 23.1203 24.3117 23.1038C24.3516 23.0707 24.3949 23.041 24.4382 23.008C24.4449 23.0047 24.4515 22.9981 24.4582 22.9947C24.4682 22.9881 24.4781 22.9815 24.4915 22.9749C24.5813 22.9122 24.6779 22.8527 24.7678 22.7965C24.7878 22.7833 24.8077 22.7701 24.831 22.7569C24.8677 22.7338 24.9043 22.7074 24.9442 22.6875C25.0508 22.6248 25.1606 22.5686 25.2705 22.5125C25.2905 22.5025 25.3138 22.4893 25.3337 22.4794C25.3537 22.4662 25.377 22.4563 25.397 22.4464C25.4037 22.4431 25.407 22.4431 25.4136 22.4398C25.5035 22.3968 25.5968 22.3605 25.6933 22.3176L25.7266 22.3043C25.7499 22.2944 25.7732 22.2845 25.7965 22.2746C25.8265 22.2614 25.8564 22.2482 25.8831 22.2383C26.0462 22.1755 26.2093 22.1227 26.3658 22.0764C26.6221 22.0037 26.8785 21.9509 27.1315 21.9145C27.2813 21.8914 27.4445 21.8782 27.6209 21.8683C27.6542 21.865 27.6842 21.865 27.7174 21.865H27.7707C27.8207 21.865 27.8706 21.8617 27.9205 21.8617C27.9805 21.8617 28.0437 21.8617 28.1036 21.865C28.1602 21.8683 28.2168 21.8716 28.2701 21.8749C28.3733 21.8815 28.4765 21.8947 28.5864 21.9079L28.633 21.9145C28.6663 21.9178 28.7029 21.9245 28.7362 21.9278C28.8627 21.9476 28.9892 21.974 29.1157 22.007C29.129 22.0103 29.1423 22.0136 29.1523 22.0136C29.159 22.0136 29.1623 22.0169 29.169 22.0169L29.1756 22.0203H29.1823C29.3221 22.0566 29.4653 22.1028 29.6184 22.159C29.6417 22.1689 29.6684 22.1788 29.6917 22.1887L29.7383 22.2085C29.8481 22.2515 29.9447 22.2944 30.0379 22.3407C30.3275 22.41 30.6138 22.5125 30.8902 22.6413L30.3608 22.3275C30.3009 22.2944 30.2376 22.2614 30.1744 22.2284C30.1511 22.2185 30.1278 22.2085 30.1045 22.1986C30.0046 22.1491 29.9014 22.1061 29.7949 22.0632C29.7516 22.0467 29.7116 22.0269 29.6684 22.0136C29.5219 21.9608 29.3721 21.9112 29.2189 21.8716C29.2156 21.8716 29.2123 21.8683 29.2089 21.8683C29.1889 21.8617 29.169 21.8617 29.149 21.8551C29.0192 21.822 28.8893 21.7956 28.7562 21.7725C28.7062 21.7626 28.6529 21.7593 28.5997 21.7494C28.4931 21.7362 28.3833 21.7229 28.2734 21.7163C28.2168 21.713 28.1602 21.7097 28.1003 21.7064C28.037 21.7031 27.9738 21.7031 27.9105 21.7031C27.8606 21.7031 27.8073 21.7031 27.7574 21.7064C27.7041 21.7064 27.6542 21.7064 27.6009 21.7097C27.4345 21.7196 27.268 21.7329 27.0949 21.756C26.8352 21.7923 26.5722 21.8485 26.3092 21.9245C26.1427 21.9707 25.9763 22.0269 25.8131 22.0896C25.7599 22.1094 25.7066 22.1359 25.65 22.159C25.5435 22.2019 25.4336 22.2482 25.3271 22.2977C25.3204 22.301 25.3171 22.301 25.3104 22.3043C25.2672 22.3242 25.2239 22.3506 25.1806 22.3737C25.0674 22.4299 24.9542 22.4893 24.8444 22.5521C24.7844 22.5884 24.7245 22.6281 24.6646 22.6644C24.568 22.7239 24.4748 22.7833 24.3816 22.8494C24.3649 22.8626 24.345 22.8725 24.3283 22.8824C24.2617 22.9287 24.1985 22.9815 24.1352 23.0278C24.0853 23.0641 24.0354 23.1005 23.9854 23.1401C23.8889 23.2161 23.7957 23.2987 23.7024 23.3812C23.6691 23.411 23.6325 23.4374 23.5992 23.4704C23.5959 23.4737 23.5892 23.477 23.5859 23.4803C23.5759 23.4903 23.5693 23.5002 23.5593 23.5068C23.3695 23.6819 23.1897 23.8701 23.02 24.065C23 24.0882 22.98 24.1047 22.96 24.1278C22.95 24.141 22.9401 24.1542 22.9301 24.1674C22.7603 24.3657 22.6005 24.5738 22.4507 24.7885C22.4373 24.8083 22.4207 24.8248 22.4074 24.8446C22.3708 24.8975 22.3408 24.9504 22.3042 25.0032C22.2676 25.0594 22.2276 25.1188 22.191 25.1783C22.1344 25.2708 22.0778 25.3666 22.0245 25.4624C21.9946 25.5185 21.9613 25.5714 21.9313 25.6275C21.9247 25.6441 21.9147 25.6573 21.9047 25.6738C21.8747 25.7333 21.8448 25.796 21.8148 25.8555C21.7682 25.948 21.7216 26.0405 21.6783 26.1363C21.6417 26.2155 21.6117 26.2948 21.5784 26.3741C21.5385 26.4699 21.4985 26.5624 21.4652 26.6615C21.4586 26.6846 21.4486 26.7044 21.4386 26.7243C21.4253 26.7606 21.4153 26.8002 21.4053 26.8366C21.3487 27.0017 21.2954 27.1702 21.2522 27.3387C21.2355 27.4015 21.2189 27.4642 21.2022 27.527C21.1489 27.7483 21.099 27.9729 21.0657 28.2009C20.8393 29.6973 21.0524 31.055 21.5751 32.1748C21.615 32.2607 21.6383 32.3532 21.655 32.4457C21.6583 32.4721 21.6616 32.4953 21.665 32.5217C21.6716 32.601 21.675 32.6836 21.665 32.7661C21.665 32.7827 21.665 32.7992 21.6616 32.8124C21.6483 32.9115 21.6217 33.0073 21.5817 33.0998C21.5751 33.113 21.5718 33.1262 21.5651 33.1394C21.5218 33.2352 21.4686 33.3277 21.402 33.4103L19.3578 35.9572C19.3146 36.0134 19.268 36.0629 19.2213 36.1125C19.1581 36.1818 19.0948 36.2512 19.0283 36.314C19.0016 36.3404 18.975 36.3635 18.9484 36.39C18.8485 36.4791 18.7486 36.5617 18.6421 36.6377C18.6288 36.6476 18.6121 36.6575 18.5988 36.6674C18.4656 36.7599 18.3258 36.8425 18.186 36.9119C18.176 36.9152 18.1693 36.9218 18.1593 36.9251C18.0395 36.9813 17.9163 37.0275 17.7965 37.0671C17.7665 37.0771 17.7365 37.087 17.7099 37.0936C17.5867 37.1299 17.4602 37.1596 17.337 37.1795C17.2205 37.196 17.1007 37.2026 16.9841 37.2026C16.9708 37.2026 16.9575 37.2026 16.9475 37.2026C16.9342 37.2026 16.9209 37.2026 16.9076 37.2026C16.7944 37.1993 16.6778 37.1894 16.568 37.1729C16.5513 37.1696 16.5347 37.1663 16.518 37.1629C16.4415 37.1497 16.3649 37.1266 16.2883 37.1035C16.3682 37.1663 16.4215 37.2092 16.4215 37.2092C16.7711 37.4801 17.1473 37.6188 17.5334 37.6783Z" fill="white"/>
<path d="M32.4397 5.1132C32.443 5.1165 32.4463 5.11651 32.4496 5.11981C32.4133 5.09008 32.3769 5.06695 32.3406 5.04053C32.3736 5.06365 32.4066 5.09008 32.4397 5.1132Z" fill="white"/>
<path d="M9.19763 36.6208C8.39196 35.9536 7.52637 34.9758 7.10689 33.6412C6.48101 31.6493 6.97705 29.3468 8.57507 26.79C11.8943 21.4914 22.2014 6.973 22.3047 6.82765L22.308 6.82435L22.3113 6.82104C23.5464 4.86214 25.6571 3.69605 27.951 3.69605C28.7067 3.69605 29.4624 3.82488 30.1848 4.06933C30.1016 4.05611 30.0217 4.05611 29.9385 4.04951C30.7941 4.19816 31.6164 4.53841 32.3355 5.04052C31.0072 4.03299 29.4657 3.53418 27.951 3.53418C25.7038 3.53418 23.5131 4.62099 22.1781 6.73516C22.1781 6.73516 11.8011 21.3427 8.44523 26.7074C4.6899 32.7063 7.84597 35.9503 9.74028 37.232C9.54386 37.0371 9.36408 36.8323 9.19763 36.6208Z" fill="white"/>
<path d="M1.84983 26.4534L1.80322 26.4303C1.6534 26.3477 1.51025 26.2519 1.37708 26.1429C1.26056 26.0471 1.14404 25.9315 1.0142 25.7828L1.00088 25.7663C0.980907 25.7465 0.964261 25.7234 0.947615 25.7036C0.837752 25.5714 0.744534 25.436 0.664634 25.3005C0.657975 25.2873 0.651317 25.2741 0.644659 25.2642C0.638 25.251 0.631342 25.2378 0.624683 25.2279C0.551441 25.0957 0.484857 24.9537 0.428261 24.8116C0.421603 24.7984 0.418274 24.7852 0.411615 24.772C0.404957 24.7588 0.401628 24.7456 0.394969 24.7324C0.338373 24.5804 0.291764 24.4152 0.251814 24.2402C0.245156 24.2104 0.238497 24.1807 0.235168 24.151L0.231839 24.1278C0.195218 23.9296 0.171913 23.7612 0.161926 23.6026V23.596C0.151938 23.4341 0.155267 23.2591 0.168584 23.0476V23.0245C0.171913 22.9948 0.171913 22.9618 0.175243 22.932C0.191888 22.7437 0.218522 22.5587 0.255143 22.387C0.258472 22.3704 0.261802 22.3539 0.265131 22.3407C0.26846 22.3275 0.271789 22.311 0.275118 22.2978C0.311739 22.1326 0.361677 21.9641 0.418274 21.799C0.424932 21.7857 0.428261 21.7692 0.43159 21.756C0.43159 21.7494 0.434919 21.7428 0.434919 21.7362C0.438249 21.7296 0.438249 21.7263 0.441578 21.7197C0.444907 21.7098 0.448236 21.7032 0.451565 21.6933C0.461553 21.6668 0.471541 21.6437 0.481528 21.6206L0.498174 21.5776C0.534795 21.4884 0.568087 21.4125 0.59805 21.3398C0.618025 21.2968 0.638 21.2539 0.661305 21.211C0.667963 21.1944 0.67795 21.1779 0.684609 21.1647C0.694596 21.1482 0.701255 21.1284 0.711242 21.1119C0.714572 21.1019 0.72123 21.0953 0.727888 21.0854C0.737876 21.0722 0.744534 21.0557 0.754522 21.0425C0.817777 20.9269 0.88769 20.8079 0.964261 20.6956C0.974249 20.6791 0.984236 20.6659 0.990894 20.6494C0.997553 20.6395 1.00088 20.6296 1.00754 20.6197C1.02086 20.5965 1.0375 20.5767 1.05082 20.5569C1.14071 20.4314 1.23725 20.3091 1.33713 20.1902C1.34379 20.1836 1.34712 20.1803 1.35378 20.1737C1.45365 20.0581 1.56352 19.9458 1.68004 19.8368C1.6867 19.8301 1.69335 19.8235 1.70334 19.8136L1.70667 19.807C1.71666 19.7971 1.72665 19.7905 1.73663 19.7806C1.75328 19.7674 1.7666 19.7575 1.78324 19.7443C1.88645 19.6551 1.98299 19.5758 2.07954 19.5031C2.09286 19.4932 2.10617 19.4833 2.11949 19.4701C2.12615 19.4635 2.13614 19.4569 2.14279 19.4503C2.16277 19.437 2.18275 19.4238 2.20272 19.4106C2.21937 19.4007 2.23601 19.3908 2.25266 19.3776C2.28928 19.3512 2.32923 19.328 2.36918 19.3016C2.43909 19.2587 2.51234 19.2157 2.60222 19.1695L2.64217 19.1463C2.66215 19.1364 2.68212 19.1265 2.69877 19.1166C2.70543 19.1133 2.71542 19.11 2.72207 19.1034L2.72873 19.1001C2.73539 19.0968 2.74205 19.0935 2.74871 19.0935C2.76535 19.0869 2.77867 19.0836 2.79532 19.077C2.92183 19.0175 3.05499 18.968 3.18816 18.9217C3.23144 18.9085 3.27139 18.8953 3.31467 18.8821C3.49778 18.8292 3.65092 18.7962 3.79407 18.7731C3.9339 18.7532 4.07373 18.7433 4.21355 18.74C4.24684 18.74 4.28014 18.7367 4.31343 18.7334C4.38001 18.7235 4.4466 18.7037 4.52317 18.6707C4.54647 18.6608 4.5731 18.6475 4.60307 18.631C4.61638 18.6244 4.6297 18.6145 4.64302 18.6046C4.68963 18.5749 4.72625 18.5451 4.75954 18.5154C4.76287 18.5121 4.7662 18.5088 4.76953 18.5055C4.81281 18.4625 4.84943 18.4229 4.87939 18.3767L10.6722 9.73502C11.0451 9.19656 11.6576 8.86292 12.2735 8.86292C12.4966 8.86292 12.713 8.90587 12.9194 8.99175C13.1025 9.06773 13.2623 9.14701 13.4021 9.22629C13.8183 9.29897 14.1945 9.51699 14.4308 9.88036H14.4342C14.4342 9.88036 14.1345 9.3287 12.9793 8.8398C12.7496 8.744 12.5099 8.69775 12.2735 8.69775C11.5944 8.69775 10.9352 9.07104 10.5457 9.63591L4.75621 18.2842C4.72958 18.3238 4.69961 18.3568 4.66632 18.3899C4.66299 18.3932 4.65966 18.3965 4.65633 18.3998C4.62637 18.4262 4.59308 18.4526 4.56312 18.4725C4.5498 18.4791 4.53648 18.489 4.5265 18.4956C4.50652 18.5055 4.48655 18.5154 4.46657 18.5253C4.4133 18.5484 4.35671 18.5683 4.29678 18.5782C4.27015 18.5815 4.24352 18.5848 4.21688 18.5848C4.0704 18.5881 3.92724 18.598 3.78076 18.6211C3.6143 18.6442 3.44784 18.6872 3.28138 18.7334C3.23477 18.7466 3.19149 18.7599 3.14821 18.7764C3.01171 18.8226 2.87522 18.8755 2.74205 18.9382C2.71874 18.9481 2.69544 18.9548 2.67214 18.9647C2.66215 18.9713 2.65216 18.9779 2.64217 18.9812C2.60888 18.9977 2.57226 19.0175 2.53897 19.0373C2.45907 19.0803 2.37584 19.1265 2.29594 19.1728C2.25599 19.1992 2.21604 19.2256 2.17276 19.2521C2.13614 19.2752 2.09952 19.2983 2.06289 19.3247C2.03959 19.3412 2.01961 19.3611 1.99631 19.3776C1.88978 19.4536 1.7899 19.5394 1.69002 19.6253C1.66339 19.6485 1.63676 19.665 1.61012 19.6881C1.60014 19.698 1.59348 19.7079 1.58349 19.7178C1.46697 19.8268 1.35378 19.9425 1.24724 20.0647C1.24391 20.0713 1.23725 20.0746 1.2306 20.0812C1.2306 20.0812 1.2306 20.0812 1.2306 20.0845C1.12739 20.2034 1.02752 20.329 0.934298 20.4611C0.917652 20.4842 0.904336 20.504 0.88769 20.5272C0.871044 20.5536 0.857727 20.58 0.841081 20.6064C0.764509 20.7254 0.691267 20.8443 0.624683 20.9665C0.611367 20.9896 0.594721 21.0128 0.581404 21.0392C0.564758 21.0722 0.548112 21.1086 0.531466 21.1449C0.508162 21.1878 0.488187 21.2341 0.468211 21.277C0.43159 21.3596 0.394969 21.4389 0.365006 21.5215C0.348361 21.5611 0.331715 21.6008 0.318398 21.6404C0.311739 21.6536 0.305081 21.6701 0.301752 21.6833C0.295093 21.7032 0.291764 21.7263 0.281777 21.7494C0.221851 21.9212 0.175243 22.0897 0.135292 22.2647C0.128634 22.2978 0.118646 22.3275 0.111988 22.3605C0.0720376 22.5488 0.0454041 22.7371 0.0287581 22.9254C0.0254289 22.9651 0.0220997 23.008 0.0187705 23.0476C-0.00120463 23.226 -0.00453383 23.4176 0.00545375 23.6059C0.0154413 23.7942 0.045404 23.9792 0.078696 24.1576C0.0853544 24.1972 0.0920127 24.2336 0.102 24.2732C0.141951 24.4483 0.188559 24.62 0.248485 24.7852C0.258472 24.8116 0.271789 24.8381 0.281777 24.8645C0.341702 25.0131 0.408286 25.1585 0.484857 25.3005C0.498174 25.327 0.511491 25.3534 0.528137 25.3798C0.614696 25.5285 0.714572 25.6705 0.824435 25.806C0.847739 25.8357 0.874373 25.8621 0.897677 25.8918C1.0142 26.0273 1.14071 26.1561 1.28053 26.2684C1.42369 26.3841 1.57683 26.4865 1.7333 26.5756L2.30593 26.8531C2.14945 26.7408 1.99631 26.6087 1.84983 26.4534Z" fill="white"/>
<path d="M3.22021 27.3086C3.24664 27.3185 3.27637 27.3284 3.3028 27.3383L3.25986 27.3152C3.24334 27.3119 3.23343 27.3119 3.22021 27.3086Z" fill="white"/>
<path d="M42.9658 8.76416C42.9691 8.76746 42.9724 8.76746 42.979 8.77077L42.9757 8.76746C42.9691 8.76746 42.9658 8.76746 42.9658 8.76416Z" fill="white"/>
<path d="M41.3809 7.67045C40.7184 7.15182 40.239 6.5473 39.9926 5.87011C39.643 4.90882 39.7329 3.82532 40.2623 2.65262C40.3022 2.56673 40.4221 2.33219 40.442 2.30246C41.3442 0.862182 42.383 0.161866 43.6148 0.161866C44.1341 0.161866 44.6967 0.300608 45.2927 0.558271C45.6822 0.624339 46.0517 0.759778 46.388 0.964587C45.4358 0.356765 44.5036 0 43.6148 0C42.4162 0 41.301 0.644159 40.3255 2.18684C40.2989 2.22648 40.1757 2.45772 40.1424 2.53039C38.9739 5.0773 39.8761 7.06263 42.0201 8.3014C41.7804 8.12301 41.5673 7.9116 41.3809 7.67045Z" fill="white"/>
<path d="M52.1259 13.5208C52.0493 13.4779 51.9761 13.4283 51.9028 13.3722L45.8703 8.5922C45.7738 8.51622 45.6539 8.49309 45.5341 8.4964L45.8271 8.65826L51.0872 12.8271L50.3914 12.4406L45.4342 8.51291C45.4043 8.52613 45.3776 8.53604 45.3477 8.54595L50.3481 12.5067C50.418 12.5629 50.4913 12.6124 50.5712 12.6554L52.1259 13.5208Z" fill="white"/>
</svg>
