<svg width="61" height="48" viewBox="0 0 61 48" fill="none" xmlns="http://www.w3.org/2000/svg">
<path d="M4.96733 2.16785V12.8488H2.96989V2.16785H0.91748V0.354777H7.01974V2.16785H4.96733Z" fill="white"/>
<path d="M12.1296 3.40649C12.1296 3.05943 12.0502 2.74828 11.8914 2.47302C11.7448 2.19777 11.4577 2.06015 11.0301 2.06015C10.798 2.06015 10.6086 2.114 10.462 2.22171C10.3154 2.31745 10.1993 2.4431 10.1138 2.59868C10.0405 2.74229 9.98554 2.90984 9.94889 3.10132C9.92446 3.28083 9.91224 3.44837 9.91224 3.60395V9.88688C9.91224 10.21 9.99165 10.5032 10.1505 10.7665C10.3215 11.0178 10.6086 11.1435 11.0118 11.1435C11.4149 11.1435 11.702 11.0118 11.873 10.7485C12.0441 10.4733 12.1296 10.1442 12.1296 9.76122V3.40649ZM14.127 9.65352C14.127 10.7426 13.8766 11.5683 13.3757 12.1308C12.8748 12.6813 12.0868 12.9565 11.0118 12.9565C9.93668 12.9565 9.15481 12.6933 8.66614 12.1667C8.17747 11.6282 7.93313 10.8562 7.93313 9.85098V3.56805C7.93313 3.07738 7.98811 2.6286 8.09806 2.22171C8.22023 1.81481 8.40348 1.46775 8.64781 1.18053C8.89215 0.881347 9.20978 0.653965 9.60072 0.498388C10.0039 0.330843 10.4803 0.24707 11.0301 0.24707C11.6165 0.24707 12.1051 0.324859 12.4961 0.480437C12.8992 0.624046 13.2169 0.83946 13.449 1.12668C13.6933 1.4139 13.8644 1.76096 13.9621 2.16785C14.072 2.57475 14.127 3.0355 14.127 3.5501V9.65352Z" fill="white"/>
<path d="M21.9095 9.29449C21.9095 9.85696 21.8545 10.3656 21.7445 10.8203C21.6468 11.2631 21.4758 11.6461 21.2314 11.9692C20.9871 12.2804 20.6572 12.5257 20.2419 12.7052C19.8387 12.8728 19.3378 12.9565 18.7392 12.9565C18.1895 12.9565 17.713 12.8788 17.3099 12.7232C16.9189 12.5676 16.5952 12.3522 16.3386 12.0769C16.0821 11.8017 15.8927 11.4786 15.7705 11.1076C15.6606 10.7366 15.6056 10.3416 15.6056 9.92279L17.5664 9.54581C17.5908 10.0125 17.6825 10.3955 17.8413 10.6947C18.0001 10.9819 18.3116 11.1255 18.7759 11.1255C19.0446 11.1255 19.2584 11.0776 19.4172 10.9819C19.5761 10.8742 19.6921 10.7366 19.7654 10.569C19.8509 10.4015 19.8998 10.21 19.912 9.99459C19.9365 9.77918 19.9487 9.55179 19.9487 9.31244C19.9487 9.01326 19.9304 8.76194 19.8937 8.55849C19.8571 8.35504 19.7837 8.18152 19.6738 8.03791C19.5761 7.8943 19.4295 7.76864 19.234 7.66093C19.0507 7.55322 18.8064 7.43355 18.501 7.30191C17.8902 7.05059 17.3954 6.79329 17.0167 6.53C16.6502 6.26672 16.3692 5.99147 16.1737 5.70425C15.9782 5.40506 15.85 5.0939 15.7889 4.77078C15.7278 4.43569 15.6973 4.07068 15.6973 3.67576C15.6973 3.17312 15.7583 2.71237 15.8805 2.29351C16.0027 1.87465 16.192 1.51562 16.4486 1.21644C16.7051 0.905282 17.0289 0.665932 17.4198 0.498388C17.823 0.330843 18.2994 0.24707 18.8492 0.24707C19.4478 0.24707 19.9426 0.34281 20.3335 0.53429C20.7244 0.713802 21.036 0.947169 21.2681 1.23439C21.5002 1.52161 21.6651 1.83875 21.7629 2.1858C21.8606 2.53286 21.9095 2.86795 21.9095 3.19107L19.9487 3.63985C19.9487 3.18509 19.8693 2.8141 19.7104 2.52688C19.5516 2.23966 19.2401 2.09605 18.7759 2.09605C18.5315 2.09605 18.3361 2.14392 18.1895 2.23966C18.0551 2.3354 17.9451 2.46106 17.8596 2.61663C17.7741 2.77221 17.7191 2.93976 17.6947 3.11927C17.6703 3.29878 17.658 3.47829 17.658 3.6578C17.658 3.87322 17.6703 4.0647 17.6947 4.23224C17.7191 4.38782 17.7863 4.53742 17.8963 4.68103C18.0184 4.82464 18.1956 4.96825 18.4277 5.11186C18.6598 5.25546 18.9774 5.40506 19.3806 5.56064C19.9426 5.77605 20.3885 6.00942 20.7183 6.26073C21.0604 6.50008 21.3169 6.76935 21.488 7.06854C21.659 7.35576 21.769 7.68486 21.8178 8.05586C21.8789 8.41488 21.9095 8.82776 21.9095 9.29449Z" fill="white"/>
<path d="M27.7026 12.8488V7.39166H25.412V12.8488H23.4512V0.354777H25.412V5.57859H27.7026V0.354777H29.6634V12.8488H27.7026Z" fill="white"/>
<path d="M36.432 12.8488L34.3796 7.46347C34.2452 7.75069 34.1047 8.04389 33.9581 8.34308C33.8237 8.6303 33.6832 8.91752 33.5366 9.20474V12.8488H31.5758V0.354777H33.5366V5.39907H33.6282L36.0288 0.354777H38.0812C37.6536 1.20447 37.2261 2.04818 36.7985 2.8859C36.3709 3.72363 35.9433 4.56733 35.5157 5.41703L38.4477 12.8488H36.432Z" fill="white"/>
<path d="M39.4499 12.8488V0.354777H45.1123V2.1858H41.429V5.57859H44.6359V7.42756H41.429V11.0178H45.1123V12.8488H39.4499Z" fill="white"/>
<path d="M48.3171 5.57859V12.8488H46.3563V0.354777H48.1338L49.6731 4.07068C49.7953 4.38184 49.9175 4.68701 50.0396 4.9862C50.1618 5.28538 50.2901 5.59055 50.4245 5.90171L51.0658 7.62503C51.0903 7.62503 51.1025 7.62503 51.1025 7.62503C51.1147 7.61306 51.133 7.60708 51.1575 7.60708V0.354777H53.0999V12.8488H51.3591L49.8197 9.15088C49.5754 8.54054 49.3311 7.94217 49.0867 7.35576C48.8546 6.76935 48.6225 6.17696 48.3904 5.57859H48.3171Z" fill="white"/>
<path d="M58.0994 2.16785V12.8488H56.102V2.16785H54.0495V0.354777H60.1518V2.16785H58.0994Z" fill="white"/>
<path d="M7.80772 26.4449C7.80772 27.0074 7.75275 27.516 7.64279 27.9708C7.54506 28.4136 7.37403 28.7965 7.12969 29.1196C6.88536 29.4308 6.5555 29.6761 6.14014 29.8556C5.73698 30.0232 5.2361 30.107 4.63748 30.107C4.08772 30.107 3.61127 30.0292 3.20812 29.8736C2.81718 29.718 2.49344 29.5026 2.23689 29.2274C1.98034 28.9521 1.79098 28.629 1.66881 28.258C1.55886 27.887 1.50388 27.4921 1.50388 27.0732L3.46467 26.6962C3.4891 27.163 3.58073 27.5459 3.73955 27.8451C3.89836 28.1323 4.20989 28.2759 4.67413 28.2759C4.94289 28.2759 5.15669 28.2281 5.31551 28.1323C5.47432 28.0246 5.59038 27.887 5.66368 27.7194C5.7492 27.5519 5.79807 27.3604 5.81028 27.145C5.83472 26.9296 5.84693 26.7022 5.84693 26.4629C5.84693 26.1637 5.82861 25.9124 5.79196 25.7089C5.75531 25.5055 5.68201 25.3319 5.57206 25.1883C5.47432 25.0447 5.32772 24.9191 5.13225 24.8113C4.949 24.7036 4.70467 24.584 4.39925 24.4523C3.78841 24.201 3.29364 23.9437 2.91492 23.6804C2.54841 23.4171 2.26743 23.1419 2.07196 22.8547C1.87649 22.5555 1.74822 22.2443 1.68713 21.9212C1.62605 21.5861 1.59551 21.2211 1.59551 20.8262C1.59551 20.3235 1.65659 19.8628 1.77876 19.4439C1.90093 19.0251 2.09029 18.666 2.34684 18.3669C2.60339 18.0557 2.92713 17.8164 3.31807 17.6488C3.72122 17.4813 4.19767 17.3975 4.74743 17.3975C5.34605 17.3975 5.84083 17.4932 6.23176 17.6847C6.6227 17.8642 6.93422 18.0976 7.16634 18.3848C7.39846 18.672 7.56339 18.9892 7.66112 19.3362C7.75885 19.6833 7.80772 20.0184 7.80772 20.3415L5.84693 20.7903C5.84693 20.3355 5.76753 19.9645 5.60871 19.6773C5.44989 19.3901 5.13836 19.2465 4.67413 19.2465C4.42979 19.2465 4.23432 19.2943 4.08772 19.3901C3.95334 19.4858 3.84339 19.6115 3.75787 19.7671C3.67235 19.9226 3.61738 20.0902 3.59295 20.2697C3.56851 20.4492 3.5563 20.6287 3.5563 20.8082C3.5563 21.0236 3.56851 21.2151 3.59295 21.3827C3.61738 21.5382 3.68457 21.6878 3.79452 21.8314C3.91669 21.9751 4.09383 22.1187 4.32595 22.2623C4.55807 22.4059 4.8757 22.5555 5.27886 22.7111C5.84083 22.9265 6.28674 23.1598 6.61659 23.4112C6.95866 23.6505 7.21521 23.9198 7.38624 24.219C7.55728 24.5062 7.66723 24.8353 7.71609 25.2063C7.77718 25.5653 7.80772 25.9782 7.80772 26.4449Z" fill="white"/>
<path d="M13.6009 29.9993V24.5421H11.3102V29.9993H9.34946V17.5052H11.3102V22.729H13.6009V17.5052H15.5617V29.9993H13.6009Z" fill="white"/>
<path d="M22.0553 29.9993L21.5606 27.3963H19.215C19.1294 27.8272 19.0439 28.264 18.9584 28.7068C18.8851 29.1376 18.8118 29.5684 18.7385 29.9993H16.7227C17.1503 27.9049 17.5779 25.8226 18.0055 23.7522C18.4331 21.6819 18.8607 19.5995 19.2883 17.5052H21.4873L24.0711 29.9993H22.0553ZM20.3328 20.3953C20.2106 21.257 20.0823 22.1187 19.948 22.9803C19.8136 23.83 19.667 24.6977 19.5082 25.5833H21.249L20.4244 20.3953H20.3328Z" fill="white"/>
<path d="M29.4564 29.9993V24.5421H27.1658V29.9993H25.205V17.5052H27.1658V22.729H29.4564V17.5052H31.4172V29.9993H29.4564Z" fill="white"/>
<path d="M37.9109 29.9993L37.4161 27.3963H35.0705C34.9849 27.8272 34.8994 28.264 34.8139 28.7068C34.7406 29.1376 34.6673 29.5684 34.594 29.9993H32.5783C33.0058 27.9049 33.4334 25.8226 33.861 23.7522C34.2886 21.6819 34.7162 19.5995 35.1438 17.5052H37.3428L39.9266 29.9993H37.9109ZM36.1883 20.3953C36.0661 21.257 35.9379 22.1187 35.8035 22.9803C35.6691 23.83 35.5225 24.6977 35.3637 25.5833H37.1046L36.2799 20.3953H36.1883Z" fill="white"/>
<path d="M43.9742 17.5052C45.0126 17.5052 45.825 17.7924 46.4114 18.3669C46.9978 18.9293 47.291 19.8508 47.291 21.1313C47.291 21.9212 47.175 22.5914 46.9428 23.1419C46.7229 23.6804 46.3259 24.1053 45.7517 24.4164L47.6392 29.9993H45.6234L43.9742 24.8293H43.0396V29.9993H41.0605V17.5052H43.9742ZM43.0396 19.3362V22.9983H43.8459C44.359 22.9983 44.7377 22.8547 44.9821 22.5674C45.2264 22.2683 45.3486 21.7955 45.3486 21.1493C45.3486 20.5749 45.2264 20.1321 44.9821 19.8209C44.7499 19.4978 44.359 19.3362 43.8092 19.3362H43.0396Z" fill="white"/>
<path d="M6.06683 47.1497V41.6925H3.7762V47.1497H1.81541V34.6556H3.7762V39.8794H6.06683V34.6556H8.02762V47.1497H6.06683Z" fill="white"/>
<path d="M14.0265 37.7073C14.0265 37.3603 13.9471 37.0491 13.7883 36.7739C13.6417 36.4986 13.3546 36.361 12.927 36.361C12.6949 36.361 12.5055 36.4148 12.3589 36.5225C12.2123 36.6183 12.0963 36.7439 12.0108 36.8995C11.9375 37.0431 11.8825 37.2107 11.8458 37.4022C11.8214 37.5817 11.8092 37.7492 11.8092 37.9048V44.1877C11.8092 44.5108 11.8886 44.8041 12.0474 45.0673C12.2184 45.3187 12.5055 45.4443 12.9087 45.4443C13.3118 45.4443 13.5989 45.3127 13.77 45.0494C13.941 44.7741 14.0265 44.445 14.0265 44.0621V37.7073ZM16.024 43.9544C16.024 45.0434 15.7735 45.8692 15.2726 46.4316C14.7717 46.9821 13.9838 47.2574 12.9087 47.2574C11.8336 47.2574 11.0517 46.9941 10.5631 46.4675C10.0744 45.929 9.83007 45.1571 9.83007 44.1518V37.8689C9.83007 37.3782 9.88504 36.9294 9.99499 36.5225C10.1172 36.1157 10.3004 35.7686 10.5447 35.4814C10.7891 35.1822 11.1067 34.9548 11.4977 34.7992C11.9008 34.6317 12.3773 34.5479 12.927 34.5479C13.5134 34.5479 14.0021 34.6257 14.393 34.7813C14.7962 34.9249 15.1138 35.1403 15.3459 35.4275C15.5903 35.7147 15.7613 36.0618 15.859 36.4687C15.969 36.8756 16.024 37.3363 16.024 37.8509V43.9544Z" fill="white"/>
<path d="M22.6702 47.1497L20.6178 41.7643C20.4834 42.0515 20.343 42.3447 20.1964 42.6439C20.062 42.9311 19.9215 43.2184 19.7749 43.5056V47.1497H17.8141V34.6556H19.7749V39.6999H19.8665L22.2671 34.6556H24.3195C23.8919 35.5053 23.4643 36.349 23.0367 37.1867C22.6092 38.0245 22.1816 38.8682 21.754 39.7179L24.686 47.1497H22.6702Z" fill="white"/>
<path d="M25.7248 47.1497V34.6556H27.7222V47.1497H25.7248Z" fill="white"/>
<path d="M33.3627 44.4211L32.4464 42.1054L31.6584 39.9153H31.5668V47.1497H29.606V34.6556H31.5118L32.9045 38.21L33.9124 40.9206H34.004L35.0302 38.1382L36.4046 34.6556H38.3104V47.1497H36.3313V39.9512H36.258L35.4517 42.1772L34.5538 44.4211H33.3627Z" fill="white"/>
<path d="M40.1657 47.1497V34.6556H42.1448V45.3187H45.6816V47.1497H40.1657Z" fill="white"/>
<path d="M46.7879 47.1497V34.6556H48.7854V47.1497H46.7879Z" fill="white"/>
<path d="M53.7844 47.2574C52.7338 47.2574 51.958 47.0001 51.4571 46.4855C50.9562 45.9589 50.7058 45.193 50.7058 44.1877V37.9586C50.7058 37.4919 50.7608 37.0551 50.8707 36.6482C50.9807 36.2293 51.1578 35.8643 51.4021 35.5532C51.6587 35.242 51.9824 34.9967 52.3734 34.8172C52.7643 34.6377 53.2408 34.5479 53.8027 34.5479C54.8412 34.5479 55.6047 34.8112 56.0934 35.3378C56.582 35.8643 56.8264 36.5525 56.8264 37.4022V37.5458L54.9022 37.9227C54.9022 37.468 54.8106 37.097 54.6274 36.8098C54.4563 36.5225 54.1753 36.3789 53.7844 36.3789C53.5523 36.3789 53.3629 36.4268 53.2163 36.5225C53.0697 36.6183 52.9537 36.7439 52.8682 36.8995C52.7949 37.0431 52.7399 37.2047 52.7032 37.3842C52.6788 37.5518 52.6666 37.7133 52.6666 37.8689V44.2057C52.6666 44.3373 52.6849 44.463 52.7216 44.5827C52.7582 44.7981 52.8437 44.9955 52.9781 45.175C53.1247 45.3546 53.3751 45.4443 53.7294 45.4443C54.0837 45.4443 54.3647 45.3546 54.5724 45.175C54.7923 44.9955 54.9022 44.7502 54.9022 44.439V41.9797H53.7294V40.2923H56.863V44.2775C56.863 45.2588 56.5759 46.0008 56.0017 46.5034C55.4398 47.0061 54.7007 47.2574 53.7844 47.2574Z" fill="white"/>
<path d="M58.5811 47.1497V34.6556H60.5786V47.1497H58.5811Z" fill="white"/>
</svg>
