<svg width="185" height="96" viewBox="0 0 185 96" fill="none" xmlns="http://www.w3.org/2000/svg">
<path d="M90.9575 0C74.0733 0 61.5918 10.7717 61.5918 22.3128C61.5918 28.2543 64.9686 33.2982 69.1576 36.7605L69.4996 36.5468C66.1655 33.7684 63.1306 29.4512 63.1306 23.5096C64.0283 10.8999 79.5874 3.80429 93.3085 3.80429C103.097 3.80429 120.665 6.06976 120.665 22.3983C120.665 30.9472 111.56 42.0182 92.4108 42.0182C82.665 42.0182 75.0564 36.7605 75.0564 29.2375C75.0564 22.7402 80.1431 18.0811 87.7089 18.0811C89.8034 18.0811 91.7696 18.594 93.2657 18.9787C90.1026 18.3803 85.2297 19.2352 82.665 21.2442V32.2723H91.9834V19.7054C93.7359 20.0046 95.1465 20.6885 96.0869 21.2869V32.2723H98.5233C96.5998 34.4523 93.052 35.7347 89.9316 35.2645V35.7347C98.8225 36.4186 102.627 32.2296 102.627 27.4422C102.627 21.8426 97.3692 18.594 92.0261 17.9101V9.57484H82.7077V17.9528C76.638 19.1924 70.6965 22.783 70.6965 28.7245C70.6965 37.9147 83.5199 43.5997 94.6335 43.5997C111.603 43.5997 124.683 35.3927 124.683 23.8944C124.683 9.95954 105.79 0 90.9575 0ZM103.909 27.7414C103.909 23.6806 101.131 20.432 96.0869 18.8505V9.57484H105.448V32.2296H102.499C103.524 30.7763 103.909 29.152 103.909 27.7414ZM50.2217 57.1926V89.7214L52.7436 90.0633V91.9869H40.2194V90.0633L42.9123 89.7214V74.9317H26.9258V89.7214L29.405 90.0633V91.9869H17.1372V90.0633L19.5737 89.7214V57.1926L17.1372 56.8506V54.9698H29.405V56.8506L26.9258 57.1926V71.0846H42.9123V57.1926L40.2194 56.8506V54.9698H52.7436V56.8506M67.6616 57.3635C67.6616 59.8427 65.9945 61.6808 63.6863 61.6808C61.3353 61.6808 59.711 60.0137 59.711 57.5345C59.711 55.1836 61.3353 53.3455 63.6863 53.3455C65.9945 53.3028 67.6616 55.1408 67.6616 57.3635ZM66.8067 89.9351L69.1576 90.2771V91.9441H57.6593V90.2771L60.0103 89.9351V67.665L57.6593 67.3231V65.656H66.8067V89.9351ZM74.1588 90.2771L76.467 89.9351V55.9102L74.1588 55.5683V53.8585H83.3062V89.9351L85.6571 90.2771V91.9869H74.1588M99.5492 65.656H105.747V68.1352H99.5492V83.7798C99.5492 87.8406 100.404 89.1229 104.037 89.1229C105.405 89.1229 106.559 89.1229 107.671 88.8665V90.6618C104.337 91.8586 101.558 92.3288 99.2072 92.3288C93.9496 92.3288 92.71 89.9351 92.71 85.3187V68.1352H87.9226V65.656H92.9238V60.142L99.5919 58.1329M129 78.9069C129 70.5717 126.521 66.9384 122.546 66.9384C118.656 66.9384 116.22 70.4007 116.22 78.9069C116.22 87.2422 118.699 90.7045 122.546 90.7045C126.692 90.7472 129 87.4132 129 78.9069ZM136.523 79.0779C136.523 87.2849 131.009 92.7562 122.375 92.7562C113.997 92.7562 108.697 89.1657 108.697 79.0779C108.697 70.6144 114.211 64.9294 122.845 64.9294C131.351 64.9294 136.523 70.016 136.523 79.0779ZM168.411 90.2771V91.9441H156.913V90.2771L159.221 89.9351V74.9744C159.221 70.8282 157.725 68.9474 154.562 68.9474C153.108 68.9474 150.8 69.9733 149.133 71.1274V89.8924L151.484 90.2343V91.9014H139.943V90.2343L142.294 89.8924V67.7933L139.943 67.4513V65.656H149.133V69.2893C151.997 66.9811 154.733 65.1431 158.623 65.1431C163.795 65.1431 166.103 68.178 166.103 74.1623V89.9778M122.589 39.9664H121.734V39.6672H123.785V39.9664H123.016V43.0013H122.589M126.179 42.4029L127.248 39.6672H127.761V43.0013H127.376V40.4793L126.393 43.0013H126.008L124.982 40.4793V43.0013H124.598V39.6672H125.153L126.179 42.4029Z" fill="white"/>
</svg>
