<svg width="297" height="72" viewBox="0 0 297 72" fill="none" xmlns="http://www.w3.org/2000/svg">
<path fill-rule="evenodd" clip-rule="evenodd" d="M244.8 0H296.229V41.1429H264.884V72H244.8V0Z" fill="#A1A1A1"/>
<path d="M296.229 51.4285H275.657V71.9999H296.229V51.4285Z" fill="#525152"/>
<path d="M4.98214 51.7501V43.3929H7.11964C10.0339 43.3929 12.2813 42.7233 13.8616 41.384C15.442 40.0447 16.2321 38.1108 16.2321 35.5822C16.2321 33.1501 15.4902 31.3206 14.0063 30.0938C12.5223 28.8671 10.3554 28.2537 7.50536 28.2537H0V51.7501H4.98214ZM6.62143 39.3108H4.98214V32.3358H7.24821C8.60893 32.3358 9.60804 32.6144 10.2455 33.1715C10.883 33.7287 11.2018 34.5912 11.2018 35.759C11.2018 36.9162 10.8214 37.7974 10.0607 38.4028C9.3 39.0081 8.15357 39.3108 6.62143 39.3108ZM28.3193 52.0715C31.0729 52.0715 33.2211 51.2465 34.764 49.5965C36.3068 47.9465 37.0783 45.659 37.0783 42.734C37.0783 40.8483 36.7247 39.2037 36.0175 37.8001C35.3104 36.3965 34.2979 35.3197 32.98 34.5697C31.6622 33.8197 30.1407 33.4447 28.4157 33.4447C25.6407 33.4447 23.4872 34.259 21.955 35.8876C20.4229 37.5162 19.6568 39.7983 19.6568 42.734C19.6568 44.6197 20.0104 46.2697 20.7175 47.684C21.4247 49.0983 22.4372 50.1831 23.755 50.9385C25.0729 51.6938 26.5943 52.0715 28.3193 52.0715ZM28.3836 48.134C27.0657 48.134 26.1149 47.6787 25.5309 46.7679C24.947 45.8572 24.655 44.5126 24.655 42.734C24.655 40.9447 24.9443 39.6081 25.5229 38.7242C26.1015 37.8403 27.0443 37.3983 28.3515 37.3983C29.6693 37.3983 30.6175 37.8429 31.1961 38.7322C31.7747 39.6215 32.064 40.9554 32.064 42.734C32.064 44.5233 31.7774 45.8706 31.2041 46.776C30.6309 47.6813 29.6907 48.134 28.3836 48.134ZM42.6404 59.6572C44.3654 59.6572 45.8735 59.1912 47.1645 58.259C48.4556 57.3269 49.4494 55.9233 50.1458 54.0483L57.7476 33.7822H52.4922L49.1654 43.8912C48.8226 44.8662 48.5922 45.9054 48.4744 47.009H48.3779C48.2708 45.809 48.0726 44.7697 47.7833 43.8912L44.3922 33.7822H39.0244L46.1601 51.6215L45.8708 52.5054C45.5065 53.5769 45.0002 54.3778 44.352 54.9081C43.7038 55.4385 42.9458 55.7037 42.0779 55.7037C41.3815 55.7037 40.7386 55.634 40.1494 55.4947V59.384C40.9636 59.5662 41.794 59.6572 42.6404 59.6572ZM66.9419 52.0715C68.7205 52.0715 70.2205 51.7983 71.4419 51.2519V47.6037C70.2419 47.9787 69.2133 48.1662 68.3562 48.1662C67.7133 48.1662 67.1964 48.0001 66.8053 47.6679C66.4142 47.3358 66.2187 46.8215 66.2187 46.1251V37.4626H71.249V33.7822H66.2187V29.9572H63.0847L61.6705 33.7501L58.9705 35.3894V37.4626H61.3169V46.1251C61.3169 48.1072 61.7642 49.5938 62.6589 50.5849C63.5535 51.576 64.9812 52.0715 66.9419 52.0715ZM79.913 52.0715C81.3166 52.0715 82.455 51.8706 83.3282 51.4688C84.2014 51.0671 85.0505 50.3465 85.8755 49.3072H86.0041L86.9523 51.7501H90.3755V39.7769C90.3755 37.634 89.7326 36.0376 88.4469 34.9876C87.1612 33.9376 85.313 33.4126 82.9023 33.4126C80.3844 33.4126 78.0916 33.9537 76.0237 35.0358L77.6469 38.3465C79.5862 37.4787 81.2737 37.0447 82.7094 37.0447C84.5737 37.0447 85.5059 37.9554 85.5059 39.7769V40.5644L82.388 40.6608C79.6987 40.7572 77.6871 41.2581 76.3532 42.1635C75.0192 43.0688 74.3523 44.4751 74.3523 46.3822C74.3523 48.2037 74.8478 49.6072 75.8389 50.5929C76.83 51.5787 78.188 52.0715 79.913 52.0715ZM81.7612 48.4876C80.1755 48.4876 79.3826 47.7965 79.3826 46.4144C79.3826 45.4501 79.7309 44.7322 80.4273 44.2608C81.1237 43.7894 82.1844 43.5322 83.6094 43.4894L85.5059 43.4251V44.9037C85.5059 45.9858 85.1657 46.8537 84.4853 47.5072C83.805 48.1608 82.8969 48.4876 81.7612 48.4876ZM99.0395 51.7501L102.832 45.5947L106.609 51.7501H112.186L106.063 42.5733L111.913 33.7822H106.352L102.832 39.5037L99.3448 33.7822H93.7841L99.5698 42.5733L93.4787 51.7501H99.0395ZM121.541 52.0715C123.319 52.0715 124.819 51.7983 126.041 51.2519V47.6037C124.841 47.9787 123.812 48.1662 122.955 48.1662C122.312 48.1662 121.795 48.0001 121.404 47.6679C121.013 47.3358 120.818 46.8215 120.818 46.1251V37.4626H125.848V33.7822H120.818V29.9572H117.684L116.269 33.7501L113.569 35.3894V37.4626H115.916V46.1251C115.916 48.1072 116.363 49.5938 117.258 50.5849C118.153 51.576 119.58 52.0715 121.541 52.0715Z" fill="white"/>
<path d="M148.335 51.7501C150.992 51.7501 153.095 51.1501 154.643 49.9501C156.191 48.7501 156.965 47.0786 156.965 44.9358C156.965 43.4251 156.636 42.2143 155.977 41.3036C155.318 40.3929 154.244 39.7715 152.755 39.4393V39.2786C153.847 39.0965 154.723 38.5554 155.382 37.6554C156.041 36.7554 156.371 35.6036 156.371 34.2001C156.371 32.1322 155.618 30.6242 154.113 29.676C152.607 28.7277 150.188 28.2536 146.856 28.2536H139.544V51.7501H148.335ZM147.419 37.559H144.526V32.3358H147.146C148.571 32.3358 149.613 32.5313 150.272 32.9224C150.93 33.3135 151.26 33.959 151.26 34.859C151.26 35.8233 150.957 36.5143 150.352 36.9322C149.747 37.3501 148.769 37.559 147.419 37.559ZM147.772 47.6358H144.526V41.5126H147.612C150.397 41.5126 151.79 42.4876 151.79 44.4376C151.79 45.5197 151.463 46.3233 150.81 46.8483C150.156 47.3733 149.144 47.6358 147.772 47.6358ZM166.111 52.0715C167.515 52.0715 168.653 51.8706 169.527 51.4688C170.4 51.067 171.249 50.3465 172.074 49.3072H172.202L173.151 51.7501H176.574V39.7768C176.574 37.634 175.931 36.0376 174.645 34.9876C173.36 33.9376 171.511 33.4126 169.101 33.4126C166.583 33.4126 164.29 33.9536 162.222 35.0358L163.845 38.3465C165.785 37.4786 167.472 37.0447 168.908 37.0447C170.772 37.0447 171.704 37.9554 171.704 39.7768V40.5643L168.586 40.6608C165.897 40.7572 163.885 41.2581 162.552 42.1635C161.218 43.0688 160.551 44.4751 160.551 46.3822C160.551 48.2036 161.046 49.6072 162.037 50.5929C163.028 51.5786 164.386 52.0715 166.111 52.0715ZM167.96 48.4876C166.374 48.4876 165.581 47.7965 165.581 46.4143C165.581 45.4501 165.929 44.7322 166.626 44.2608C167.322 43.7893 168.383 43.5322 169.808 43.4893L171.704 43.4251V44.9036C171.704 45.9858 171.364 46.8536 170.684 47.5072C170.003 48.1608 169.095 48.4876 167.96 48.4876ZM186.99 51.7501V43.2965C186.99 41.1751 187.295 39.6563 187.906 38.7402C188.516 37.8242 189.507 37.3661 190.879 37.3661C191.886 37.3661 192.62 37.6902 193.081 38.3385C193.541 38.9867 193.772 39.959 193.772 41.2554V51.7501H198.674V40.034C198.674 37.9018 198.132 36.2706 197.05 35.1402C195.968 34.0099 194.382 33.4447 192.293 33.4447C191.072 33.4447 189.982 33.667 189.023 34.1117C188.064 34.5563 187.311 35.2126 186.765 36.0804H186.491L185.832 33.7822H182.088V51.7501H186.99ZM209.089 51.7501V46.1572L211.195 44.4697L216.37 51.7501H222.027L214.457 41.5768L221.593 33.7822H216.064L211.034 39.2465L208.896 41.9786H208.832L209.089 37.8965V26.7429H204.188V51.7501H209.089Z" fill="white"/>
</svg>
