<svg width="225" height="72" viewBox="0 0 225 72" fill="none" xmlns="http://www.w3.org/2000/svg">
<g clip-path="url(#clip0_49_867)">
<path fill-rule="evenodd" clip-rule="evenodd" d="M84.9002 18.195V23.3905H79.1978V14.3955H89.1072C92.4596 14.3955 94.9881 15.154 96.6919 16.6662C98.3916 18.1821 99.2413 20.4226 99.2413 23.3905C99.2413 26.3721 98.3916 28.6164 96.6919 30.1241C94.9881 31.6366 92.4596 32.3903 89.1072 32.3903H79.1978V28.5863H84.9002H85.8487H87.6879C89.774 28.5863 91.2914 28.184 92.247 27.37C93.1991 26.5603 93.6793 25.2326 93.6793 23.3905C93.6793 21.5531 93.1909 20.2253 92.2217 19.4159C91.2486 18.6017 89.728 18.195 87.6538 18.195H84.9002ZM116.286 20.5939C116.286 18.9444 115.367 18.122 113.531 18.122H107.732V23.1167H113.531C115.368 23.1167 116.286 22.277 116.286 20.5939ZM112.028 26.8046H107.732V32.3903H102.03V14.3955H114.918C117.416 14.3955 119.269 14.9694 120.476 16.1214C121.682 17.2695 122.286 18.756 122.286 20.5807C122.286 22.4312 121.686 23.9262 120.493 25.074C119.89 25.6607 119.116 26.0936 118.177 26.3801L122.698 32.3903H116.01L112.028 26.8046ZM131.015 14.3955V32.3903H125.312V14.3955H131.015ZM141.679 32.3903L133.176 14.3955H139.142L144.968 27.156L150.794 14.3955H156.619L148.117 32.3903H141.679ZM174.686 18.1219H167.329C165.548 18.1219 164.258 18.3963 163.463 18.9489C162.672 19.5015 162.206 20.3323 162.065 21.433H174.686V25.1256H162.065C162.121 26.2049 162.546 27.0572 163.339 27.6826C164.134 28.3123 165.465 28.6249 167.329 28.6249H174.686V32.3903H166.608C163.182 32.3903 160.595 31.6366 158.858 30.1241C157.118 28.6164 156.251 26.3721 156.251 23.3905C156.251 20.4138 157.118 18.1692 158.858 16.6614C160.595 15.1493 163.178 14.3955 166.608 14.3955H174.686V18.1219ZM192.23 20.5939C192.23 18.9444 191.307 18.122 189.475 18.122H183.675V23.1167H189.475C191.311 23.1167 192.23 22.277 192.23 20.5939ZM187.972 26.8046H183.675V32.3903H177.972V14.3955H190.86C193.359 14.3955 195.212 14.9694 196.419 16.1214C197.626 17.2695 198.229 18.756 198.229 20.5807C198.229 22.4312 197.63 23.9262 196.436 25.074C195.833 25.6607 195.059 26.0936 194.121 26.3801L198.641 32.3903H191.953L187.972 26.8046ZM204.215 32.3903V28.664H215.977C217.29 28.664 217.944 28.0851 217.944 26.9331C217.944 25.8023 217.284 25.2369 215.977 25.2369H210.092C208.027 25.2369 206.446 24.7701 205.354 23.8362C204.261 22.9067 203.717 21.5661 203.717 19.814C203.717 18.0663 204.252 16.7256 205.328 15.7917C206.402 14.8621 207.933 14.3955 209.917 14.3955H223.15V18.1606H211.434C210.096 18.1606 209.416 18.7133 209.416 19.814C209.416 20.9447 210.092 21.5099 211.434 21.5099H217.447C219.465 21.5099 221.003 21.9772 222.061 22.9109C223.119 23.8404 223.646 25.1813 223.646 26.9331C223.646 28.7063 223.119 30.06 222.061 30.9893C221.003 31.9235 219.46 32.3903 217.447 32.3903H204.215Z" fill="white"/>
<path fill-rule="evenodd" clip-rule="evenodd" d="M88.1156 57.6041L79.4563 39.5881H85.5321L91.4647 52.3638L97.3984 39.5881H103.332L94.6718 57.6041H88.1156ZM111.957 39.5881V57.6041H106.149V39.5881H111.957ZM120.901 39.5881V51.1071C120.901 52.8985 121.962 53.7963 124.082 53.7963H135.139V57.6041H122.636C117.618 57.6041 115.106 55.4382 115.106 51.1071V39.5881H120.901ZM141.601 39.5881V51.1071C141.601 52.8978 142.662 53.7963 144.782 53.7963H155.838V57.6041H143.336C138.319 57.6041 135.806 55.4382 135.806 51.1071V39.5881H141.601ZM163.775 57.6041C161.644 57.6041 159.99 57.1111 158.829 56.1291C157.674 55.1424 157.094 53.7788 157.094 52.0378C157.094 50.3052 157.674 48.9457 158.829 47.9593C159.99 46.9773 161.639 46.4842 163.775 46.4842H171.838V45.8324C171.838 44.9189 171.622 44.2797 171.184 43.9113C170.752 43.5422 169.996 43.3579 168.934 43.3579H158.475V39.5881H169.151C172.149 39.5881 174.319 40.1554 175.647 41.2823C176.979 42.4128 177.646 44.2654 177.646 46.823V57.6041H163.775ZM171.838 50.1806H165.334C163.774 50.1806 162.988 50.7985 162.988 52.0379C162.988 53.2857 163.771 53.9121 165.334 53.9121H171.838V50.1806ZM200.601 46.8745V57.6041H190.885C187.474 57.6041 184.899 56.8494 183.164 55.3355C181.433 53.8263 180.567 51.5789 180.567 48.594C180.567 45.6219 181.433 43.3792 183.164 41.861C184.899 40.3474 187.469 39.5881 190.885 39.5881H200.601V43.2679H192.368C190.26 43.2679 188.724 43.6767 187.782 44.4859C186.836 45.299 186.358 46.6686 186.358 48.594C186.358 50.4381 186.824 51.7675 187.756 52.5781C188.686 53.3931 190.21 53.7963 192.331 53.7963H194.792V50.4426H191.036V46.8745H200.601ZM223.151 43.3195H215.66C213.847 43.3195 212.531 43.5936 211.722 44.147C210.917 44.7003 210.442 45.5322 210.299 46.6341H223.151V50.3313H210.299C210.355 51.4117 210.787 52.2652 211.596 52.8913C212.406 53.5216 213.761 53.8348 215.66 53.8348H223.151V57.6041H214.924C211.437 57.6041 208.801 56.8494 207.032 55.3355C205.262 53.8263 204.378 51.5789 204.378 48.594C204.378 45.6135 205.262 43.3663 207.032 41.857C208.801 40.3433 211.432 39.5881 214.924 39.5881H223.151V43.3195Z" fill="white"/>
<path fill-rule="evenodd" clip-rule="evenodd" d="M200.114 18.9592C200.016 18.9592 199.984 18.9077 200.026 18.8092L201.236 16.0788C201.277 15.9807 201.246 15.9288 201.148 15.9288H200.207C200.046 15.9288 199.964 15.8461 199.964 15.6703V12.8258C199.964 12.6502 200.046 12.5676 200.207 12.5676H203.072C203.231 12.5676 203.315 12.6502 203.315 12.8258V15.4894C203.315 15.6341 203.293 15.7323 203.253 15.7946L201.541 18.7163C201.437 18.8819 201.298 18.9592 201.118 18.9592H200.114Z" fill="white"/>
<path fill-rule="evenodd" clip-rule="evenodd" d="M44.7913 30.925L47.545 39.6745L50.2986 30.925H58.4185L54.5551 41.2491H40.56L36.6834 30.925H44.7913Z" fill="white"/>
<path fill-rule="evenodd" clip-rule="evenodd" d="M21.7514 50.3432L10.1229 50.3426V43.0957H13.0708H17.7909H21.0135C22.7929 43.096 24.4147 42.3963 25.6338 41.249H34.6762C32.6513 46.5739 27.628 50.3439 21.7514 50.3432Z" fill="white"/>
<path fill-rule="evenodd" clip-rule="evenodd" d="M71.9787 34.8181C71.9909 35.2108 72.0001 35.6045 72.0001 36.0002C72.0001 42.504 70.2749 48.605 67.2576 53.8706H62.0222C65.5186 48.789 67.5664 42.6343 67.5664 36.0002C67.5664 35.6041 67.5567 35.2107 67.5423 34.8181H71.9787ZM4.74189 53.8705C1.72525 48.605 0 42.504 0 36.0002C0 35.6044 0.0090228 35.2108 0.0214494 34.8181H4.45763C4.44326 35.2107 4.43333 35.6041 4.43333 36.0002C4.43333 42.6343 6.48155 48.789 9.97786 53.8705H4.74189Z" fill="white"/>
<path fill-rule="evenodd" clip-rule="evenodd" d="M67.2577 53.8706C61.0518 64.702 49.3783 72.0001 36.0001 72.0001C22.6218 72.0001 10.9483 64.702 4.74188 53.8706H9.97785C15.6694 62.1418 25.2007 67.5669 36.0001 67.5669C46.7991 67.5669 56.3308 62.1418 62.0222 53.8706H67.2577Z" fill="white"/>
<path fill-rule="evenodd" clip-rule="evenodd" d="M65.7776 15.7661C69.4967 21.228 71.7507 27.7668 71.9784 34.8182H67.542C67.2753 27.5794 64.5723 20.9631 60.227 15.7661H65.7776ZM0.0214233 34.8182C0.249154 27.7669 2.5028 21.228 6.22191 15.7661H11.7725C7.42741 20.9631 4.72424 27.5794 4.45761 34.8182H0.0214233Z" fill="white"/>
<path fill-rule="evenodd" clip-rule="evenodd" d="M36.0001 0C48.3801 0 59.2993 6.24983 65.7779 15.7661H60.2272C54.4366 8.84023 45.7335 4.43376 36.0001 4.43376C26.2661 4.43376 17.5635 8.84023 11.7725 15.7661H6.22192C12.7008 6.24983 23.6197 0 36.0001 0Z" fill="white"/>
<path fill-rule="evenodd" clip-rule="evenodd" d="M25.6338 41.2487C27.0098 39.9535 27.8732 38.088 27.8732 36.0145C27.8732 34.0167 27.0719 32.2128 25.7828 30.9253H34.7297C35.3121 32.5067 35.6318 34.222 35.6318 36.0145C35.6318 37.8619 35.2933 39.6272 34.6764 41.2487H25.6338ZM17.7907 30.9253V35.9889H10.1229V30.9253H17.7907Z" fill="white"/>
<path fill-rule="evenodd" clip-rule="evenodd" d="M25.7827 30.9249C24.5483 29.692 22.8665 28.9327 21.0135 28.9327H17.7909V30.9249H10.1229V21.6853H21.7514C27.6806 21.6853 32.7409 25.5238 34.7298 30.9249H25.7827Z" fill="white"/>
<path fill-rule="evenodd" clip-rule="evenodd" d="M54.5551 41.249L51.1359 50.385H43.9911L40.5601 41.249H54.5551Z" fill="white"/>
<path fill-rule="evenodd" clip-rule="evenodd" d="M33.2125 21.6853H41.8826L44.7906 30.9249H36.6827L33.2125 21.6853ZM50.2981 30.9249L53.2061 21.6853H61.8761L58.4179 30.9249H50.2981Z" fill="white"/>
</g>
<defs>
<clipPath id="clip0_49_867">
<rect width="225" height="72" fill="white"/>
</clipPath>
</defs>
</svg>
