<svg width="30" height="40" viewBox="0 0 30 40" fill="none" xmlns="http://www.w3.org/2000/svg">
<path d="M0 2.40001C0 1.07437 1.07437 0 2.40001 0H20L30 8.39998V37.6C30 38.9256 28.9257 40 27.6 40H2.40001C1.07437 40 0 38.9256 0 37.6V2.40001Z" fill="#E44232"/>
<path d="M7.52482 25.359H6.58733V28.2347H4.51172V19.5703H7.24981C9.61296 19.5703 10.9629 20.4954 10.9629 22.3959C10.9623 24.4346 9.57486 25.359 7.52482 25.359ZM7.27488 21.0453H6.58741V23.8584H7.34992C8.28741 23.8584 8.82488 23.4078 8.82488 22.3953C8.82488 21.4834 8.31239 21.0453 7.27488 21.0453Z" fill="white"/>
<path d="M14.2373 28.2347H11.8867V19.5703H14.0873C16.3136 19.5703 18.4379 20.2829 18.4379 23.8597C18.438 27.3834 16.3999 28.2347 14.2373 28.2347ZM14.3867 21.0703H13.9617V26.7346H14.3867C15.5243 26.7346 16.2867 26.1221 16.2867 23.8584C16.288 21.5466 15.4749 21.0703 14.3867 21.0703Z" fill="white"/>
<path d="M22.0491 21.0453V23.3215H25.0747V24.809H22.0491V28.2347H19.9609V19.5703H25.6747L25.4622 21.0453H22.0491Z" fill="white"/>
<path d="M20 0V5.99997C20 7.32561 21.0744 8.39998 22.4 8.39998H30" fill="#FF5E4F"/>
</svg>
