<?xml version="1.0" standalone="no"?>
<!DOCTYPE svg PUBLIC "-//W3C//DTD SVG 20010904//EN"
 "http://www.w3.org/TR/2001/REC-SVG-20010904/DTD/svg10.dtd">
<svg version="1.0" xmlns="http://www.w3.org/2000/svg"
 width="888.000000pt" height="888.000000pt" viewBox="0 0 888.000000 888.000000"
 preserveAspectRatio="xMidYMid meet">
<metadata>
Created by potrace 1.14, written by Peter Selinger 2001-2017
</metadata>
<g transform="translate(0.000000,888.000000) scale(0.100000,-0.100000)"
fill="#000000" stroke="none">
<path d="M4357 7285 c-55 -19 -86 -45 -111 -94 -25 -48 -27 -111 -5 -156 11
-22 24 -42 30 -46 6 -3 -2 -9 -17 -13 -59 -15 -151 -68 -200 -114 -68 -64
-131 -180 -149 -273 -11 -55 -16 -99 -11 -99 3 0 22 26 43 58 68 104 142 162
208 162 62 0 155 -66 225 -160 37 -50 48 -52 69 -12 30 58 121 149 169 170 20
8 39 15 42 15 3 -1 19 -3 35 -6 17 -3 41 -9 55 -15 26 -10 150 -128 150 -143
0 -4 11 -20 25 -35 14 -15 24 -21 21 -13 -3 8 -7 32 -10 54 -3 22 -12 61 -19
87 -8 26 -12 49 -9 52 3 4 1 6 -4 6 -6 0 -16 16 -23 36 -34 94 -168 204 -278
228 -33 8 -35 22 -8 56 16 20 19 89 6 137 -10 38 -56 90 -97 111 -34 18 -97
21 -137 7z"/>
<path d="M4115 6610 c-31 -13 -135 -120 -135 -140 0 -5 -4 -10 -8 -10 -5 0
-16 -16 -25 -35 -16 -34 -37 -47 -37 -22 0 15 -55 49 -90 56 -37 6 -180 5
-214 -3 -38 -9 -88 -45 -80 -57 3 -5 37 -30 75 -55 86 -57 174 -143 226 -220
52 -78 104 -192 119 -259 1 -5 5 -23 9 -40 14 -63 26 -151 21 -167 -2 -10 0
-21 5 -24 12 -7 859 -7 866 0 3 3 7 20 9 38 2 18 6 44 10 58 3 14 8 36 10 50
20 114 118 325 188 405 64 73 134 138 177 166 57 36 66 56 39 81 -11 10 -20
16 -20 12 0 -3 -7 0 -17 7 -11 10 -48 14 -127 14 -124 0 -168 -14 -198 -63
-10 -15 -18 -21 -18 -14 0 22 -121 177 -157 202 -39 26 -82 34 -119 20 -30
-12 -141 -124 -150 -152 -3 -10 -10 -18 -15 -18 -6 0 -7 -4 -4 -10 3 -5 1 -10
-5 -10 -6 0 -15 -12 -20 -26 -10 -25 -11 -24 -66 52 -108 150 -176 195 -249
164z"/>
<path d="M2938 6063 c-51 -43 -99 -82 -106 -88 -7 -5 -21 -17 -30 -25 -10 -8
-53 -44 -97 -79 -44 -35 -85 -70 -91 -78 -6 -7 -16 -13 -23 -13 -6 0 -11 -4
-11 -8 0 -4 -21 -24 -47 -45 -27 -20 -61 -47 -76 -61 -16 -14 -47 -40 -70 -58
-71 -57 -112 -93 -115 -100 -2 -5 -8 -8 -13 -8 -8 0 -39 -25 -92 -75 -22 -21
-22 -26 -22 -308 1 -158 -3 -287 -7 -287 -4 0 -17 4 -30 9 -24 10 -59 23 -68
26 -3 1 -32 10 -65 19 -33 10 -66 23 -74 30 -8 6 -15 10 -15 8 -2 -6 -61 11
-73 21 -7 5 -13 6 -13 2 0 -4 -7 -2 -15 5 -8 7 -15 10 -15 6 0 -4 -13 0 -30 9
-16 8 -33 15 -37 15 -11 0 -44 9 -68 19 -11 5 -51 19 -90 31 -38 13 -75 25
-80 27 -7 2 -10 -119 -9 -354 0 -197 -1 -361 -3 -365 -2 -4 -16 -2 -31 4 -15
6 -40 16 -57 23 -16 7 -55 21 -85 31 -30 10 -58 23 -62 29 -4 5 -8 7 -8 3 0
-7 -37 4 -107 33 -57 23 -70 28 -103 39 -19 7 -48 18 -65 25 -16 7 -55 21 -85
31 -30 10 -59 21 -65 25 -5 4 -26 10 -45 14 l-35 6 0 -1377 0 -1377 -135 -39
c-74 -21 -142 -41 -150 -43 -8 -2 -28 -8 -45 -15 -16 -6 -32 -12 -35 -12 -6
-1 -8 -1 -110 -35 -47 -15 -88 -28 -92 -29 -5 -1 -11 -3 -15 -4 -5 -1 -11 -2
-15 -1 -5 0 -8 -6 -8 -15 0 -8 4 -13 8 -10 4 2 26 7 47 10 22 3 51 7 65 10 14
3 41 7 60 10 19 3 44 8 56 10 12 2 45 7 75 11 30 3 65 8 79 10 14 3 43 7 65
10 22 2 49 6 60 9 11 2 45 7 76 10 31 4 67 9 80 11 12 3 47 7 78 11 96 10 123
13 155 18 17 3 58 8 91 11 33 4 74 9 90 12 17 2 48 6 70 8 22 2 58 6 80 9 22
3 69 8 105 11 36 3 88 8 115 12 28 3 64 6 80 8 17 1 59 6 95 9 130 14 156 16
225 20 39 2 70 5 70 6 0 2 18 4 40 5 50 3 180 13 266 20 161 12 270 19 459 29
597 32 707 35 1375 42 297 2 545 7 552 9 6 2 13 1 16 -2 3 -2 126 -6 274 -8
147 -2 333 -7 413 -10 80 -3 196 -8 258 -10 176 -7 420 -19 597 -31 44 -3 109
-6 145 -8 67 -4 173 -12 295 -22 39 -4 88 -8 110 -9 22 -2 40 -4 40 -5 0 0 32
-3 70 -6 113 -7 141 -10 153 -18 7 -4 12 -2 12 4 0 6 4 9 8 6 9 -5 68 -14 152
-21 30 -3 73 -7 95 -10 22 -2 69 -7 105 -10 36 -3 76 -8 90 -10 22 -4 52 -7
180 -20 19 -2 53 -7 75 -10 22 -3 60 -8 85 -10 25 -3 59 -7 75 -10 17 -2 53
-7 81 -10 28 -3 62 -8 75 -10 13 -3 49 -8 79 -11 30 -3 66 -7 80 -10 14 -2 41
-7 60 -9 67 -10 175 -27 205 -31 17 -3 46 -7 65 -10 19 -2 60 -9 90 -14 30 -5
71 -12 90 -15 19 -2 47 -7 63 -10 24 -5 27 -2 27 20 0 16 -7 28 -17 31 -10 3
-25 9 -33 12 -8 3 -19 7 -25 7 -5 1 -17 5 -25 8 -34 14 -207 67 -232 71 -15 3
-33 8 -40 13 -13 8 -15 8 -60 18 -15 3 -40 10 -55 16 -16 6 -29 10 -30 10 -2
-1 -4 -1 -5 0 -2 0 -10 2 -18 4 -39 10 -57 15 -88 24 -18 5 -35 10 -37 11 -49
9 -67 14 -72 23 -4 6 -7 612 -8 1347 -1 734 -3 1341 -3 1348 -2 8 -7 9 -19 3
-19 -11 -131 -52 -148 -55 -5 -1 -17 -6 -25 -11 -8 -5 -19 -10 -25 -11 -5 -1
-95 -34 -200 -73 -104 -39 -195 -71 -202 -71 -7 0 -13 -5 -13 -12 0 -6 -3 -8
-6 -5 -4 3 -15 2 -26 -4 -11 -6 -29 -12 -40 -14 -12 -3 -26 -9 -31 -14 -5 -5
-9 -453 -9 -1136 l0 -1127 -47 5 c-25 3 -64 9 -86 13 -22 4 -50 8 -62 8 -13 1
-23 3 -23 6 0 3 -15 7 -33 8 -50 4 -80 11 -86 21 -3 5 -6 474 -6 1042 l0 1032
80 28 c94 34 88 32 98 30 4 0 7 4 7 9 0 5 3 9 8 8 10 -3 84 22 98 33 6 5 14 6
17 3 3 -4 13 0 21 8 12 12 14 74 15 376 l0 360 -27 -8 c-35 -11 -93 -30 -112
-38 -8 -3 -22 -7 -30 -8 -8 -2 -59 -19 -112 -37 -53 -19 -99 -32 -103 -29 -3
3 -5 1 -5 -5 0 -6 -12 -13 -27 -16 -16 -3 -83 -24 -150 -47 l-123 -42 0 -307
c0 -168 0 -766 0 -1328 0 -969 -1 -1022 -17 -1019 -50 9 -121 19 -148 21 -16
1 -48 5 -70 8 -22 3 -67 9 -100 12 -32 4 -62 8 -65 10 -3 2 -5 557 -5 1234 0
1269 -1 1251 37 1257 11 1 48 13 196 59 7 3 14 5 17 5 3 0 23 7 45 15 22 8 42
15 45 15 3 0 12 3 20 5 8 3 22 7 30 10 13 4 15 46 15 300 0 162 -4 295 -9 295
-4 0 -19 10 -33 23 -13 12 -39 33 -57 47 -18 14 -45 37 -61 53 -16 15 -31 27
-35 27 -3 0 -18 11 -33 25 -38 35 -47 43 -137 115 -44 35 -82 67 -85 70 -3 3
-93 77 -200 165 -107 87 -197 162 -200 166 -3 3 -14 11 -25 17 -20 10 -20 7
-20 -1921 l0 -1932 -80 2 c-121 3 -239 13 -247 21 -3 4 -9 34 -12 66 -4 32 -8
62 -11 66 -2 3 -6 17 -8 31 -21 112 -70 241 -104 271 -19 17 -72 20 -304 19
l-87 -1 4 -42 c9 -94 50 -196 134 -333 22 -36 36 -65 32 -66 -4 0 -34 0 -67 1
-52 1 -63 4 -82 28 -13 15 -23 31 -23 35 0 5 -9 21 -20 37 -11 15 -17 30 -13
34 3 3 0 6 -7 6 -7 0 -10 3 -7 7 4 3 3 11 -2 17 -24 30 -59 160 -65 240 l-3
31 -664 2 c-512 2 -668 0 -680 -10 -9 -7 -26 -32 -39 -57 -24 -47 -62 -150
-55 -150 3 0 0 -12 -6 -28 -6 -15 -12 -36 -14 -47 -2 -11 -6 -37 -9 -57 -3
-21 -8 -55 -11 -75 -6 -43 -9 -47 -38 -49 -136 -9 -217 -16 -240 -20 -19 -3
-29 1 -34 12 -9 25 -10 98 0 111 4 6 4 13 0 16 -10 6 -9 169 0 185 4 6 3 13
-3 17 -6 4 -8 10 -6 14 5 8 7 75 4 162 -1 30 2 60 5 67 4 6 4 13 0 15 -10 6
-9 189 0 204 4 7 4 14 0 16 -10 6 -9 129 0 145 4 6 3 13 -3 17 -6 4 -8 10 -6
14 6 9 7 83 4 164 -2 33 0 61 5 64 4 2 4 9 0 16 -9 15 -10 198 0 204 4 2 4 9
1 15 -4 5 -6 48 -5 94 1 46 1 92 1 102 0 9 0 82 0 162 0 80 0 150 0 155 0 6 0
57 -1 115 0 58 0 110 1 115 1 6 1 15 0 20 -6 29 -4 125 3 125 4 0 4 8 0 18
-10 21 -10 183 0 199 4 6 3 14 -3 18 -6 4 -8 10 -6 14 6 9 7 83 4 164 -2 33 0
61 5 64 4 2 4 9 0 16 -9 15 -10 198 0 204 4 2 4 9 1 15 -6 10 -8 86 -4 106 2
4 1 12 0 17 -6 29 -4 125 3 125 5 0 5 5 1 12 -4 6 -7 64 -5 127 1 64 1 121 1
126 0 6 -1 79 -2 163 -1 83 -3 152 -4 152 -2 0 -45 -35 -96 -77z m-638 -1285
c19 -3 173 -49 205 -60 17 -6 34 -15 39 -19 9 -8 12 -2487 3 -2496 -3 -3 -20
-6 -39 -9 -86 -9 -125 -14 -148 -18 -50 -10 -136 -20 -174 -20 l-39 -1 -1
1325 c-1 729 2 1330 7 1336 6 9 26 5 75 -12 37 -14 69 -25 72 -26z m-585 -543
c38 -14 73 -29 78 -34 13 -13 15 -51 5 -78 -4 -12 -4 -24 0 -27 7 -4 8 -64 2
-91 -1 -5 -2 -12 -1 -15 3 -7 4 -453 1 -465 -1 -5 -2 -12 -1 -15 3 -7 4 -453
1 -465 -1 -5 -2 -12 -1 -15 3 -7 4 -453 1 -465 -1 -5 -2 -14 0 -20 5 -28 2
-294 -4 -303 -3 -6 -3 -13 1 -15 5 -3 7 -20 6 -39 -1 -18 -2 -49 -2 -70 -1
-29 -5 -36 -18 -33 -10 1 -22 0 -28 -3 -5 -4 -23 -7 -40 -8 -16 -1 -41 -5 -55
-8 -56 -13 -101 -22 -154 -32 -16 -2 -33 -7 -38 -10 -4 -3 -8 3 -9 13 -3 56
-4 2270 -1 2279 2 7 36 -1 95 -23 51 -18 123 -45 162 -58z"/>
<path d="M4282 5481 c-13 -3 -120 -5 -239 -5 -210 2 -217 1 -240 -20 -50 -47
-38 -147 21 -171 23 -9 175 -12 605 -11 l573 1 28 33 c23 27 27 40 24 78 -3
29 -12 52 -27 67 -21 21 -31 22 -173 23 -83 0 -156 4 -162 8 -6 3 -13 3 -15
-1 -5 -9 -348 -9 -363 -1 -5 3 -19 2 -32 -1z"/>
<path d="M4079 5185 c-1 -5 0 -14 1 -20 27 -138 30 -475 5 -710 -2 -22 -7 -62
-9 -90 -5 -47 -12 -95 -23 -155 -2 -14 -6 -41 -8 -60 -2 -19 -4 -35 -5 -35 -2
0 -4 -10 -13 -55 -17 -81 -39 -174 -58 -240 -11 -41 -22 -82 -24 -90 -5 -21
-63 -181 -74 -205 -5 -11 -28 -64 -52 -117 -23 -54 -47 -98 -52 -98 -6 0 -7
-3 -4 -7 4 -3 2 -13 -5 -20 -15 -18 10 -37 28 -23 6 6 13 8 16 5 4 -4 60 -6
128 -4 8 0 116 0 240 0 124 0 234 0 245 0 89 0 314 0 332 0 20 -1 16 11 -51
142 -79 155 -105 215 -108 255 -1 6 -5 12 -10 12 -4 0 -8 8 -8 18 0 9 -7 37
-16 62 -9 25 -18 53 -20 63 -2 9 -6 27 -10 40 -10 43 -20 89 -30 147 -4 19 -9
44 -11 55 -8 38 -31 195 -31 215 -1 8 -4 47 -8 85 -9 92 -9 613 -1 738 4 53 4
97 -1 98 -58 7 -362 2 -363 -6z"/>
<path d="M4591 5185 c-5 -5 -8 -17 -9 -25 0 -8 -3 -60 -6 -115 -12 -196 -7
-560 9 -705 4 -36 9 -83 11 -105 1 -22 6 -55 9 -72 11 -66 14 -89 19 -123 7
-46 14 -77 21 -100 6 -19 11 -42 21 -94 2 -16 7 -33 10 -38 3 -4 7 -16 9 -25
7 -36 54 -170 80 -228 38 -89 46 -104 88 -167 20 -31 37 -64 37 -73 0 -8 4
-15 9 -15 5 0 11 -9 14 -20 5 -20 10 -21 115 -22 18 0 36 2 39 6 3 3 -17 53
-46 111 -28 58 -51 109 -51 113 0 5 -9 27 -20 50 -11 22 -21 49 -23 59 -1 10
-5 23 -8 28 -7 12 -48 137 -52 162 -2 10 -7 25 -10 33 -8 20 -35 126 -48 192
-12 60 -14 69 -29 158 -6 36 -13 76 -15 90 -9 46 -16 117 -32 300 -14 158 -7
504 13 598 3 17 3 32 -2 33 -52 6 -147 2 -153 -6z"/>
<path d="M3756 3163 c-3 -3 -45 -5 -93 -5 -88 0 -117 -9 -153 -48 -79 -84 -29
-231 83 -246 18 -3 37 -7 44 -9 6 -2 14 -1 17 3 4 3 25 5 49 4 59 -2 180 -3
192 -2 6 1 28 1 50 1 94 -2 181 -2 190 -1 6 1 28 1 50 1 94 -2 181 -2 190 -1
9 2 29 1 115 -1 19 -1 40 0 45 1 6 1 28 1 50 1 94 -2 181 -2 190 -1 6 1 28 1
50 1 96 -2 181 -2 190 -1 6 1 21 3 35 3 l25 2 0 143 c0 121 -2 145 -15 152 -9
5 -22 5 -30 0 -8 -5 -17 -7 -21 -4 -8 5 -73 6 -109 1 -14 -1 -40 0 -58 4 -17
4 -34 4 -36 0 -2 -3 -28 -5 -58 -3 -72 3 -61 3 -173 3 -106 0 -128 -1 -160 -4
-11 -2 -35 0 -53 4 -17 4 -34 4 -36 0 -2 -3 -28 -5 -58 -3 -72 3 -61 3 -173 3
-106 0 -128 -1 -160 -4 -11 -2 -33 0 -50 3 -16 4 -41 3 -55 0 -14 -4 -35 -3
-46 1 -12 4 -24 5 -28 2z"/>
<path d="M5197 3152 c-1 -4 -2 -59 -1 -122 3 -188 0 -172 33 -167 77 13 131
80 125 157 -4 47 -24 81 -66 113 -27 20 -84 32 -91 19z"/>
<path d="M70 1650 c-13 -8 -12 -10 3 -10 9 0 17 5 17 10 0 12 -1 12 -20 0z"/>
</g>
</svg>
